<?xml version="1.0" standalone="no"?>
<!DOCTYPE svg PUBLIC "-//W3C//DTD SVG 20010904//EN"
 "http://www.w3.org/TR/2001/REC-SVG-20010904/DTD/svg10.dtd">
<svg version="1.0" xmlns="http://www.w3.org/2000/svg"
 width="1000.000000pt" height="1000.000000pt" viewBox="0 0 1000.000000 1000.000000"
 preserveAspectRatio="xMidYMid meet">
<metadata>
Created by potrace 1.14, written by Peter Selinger 2001-2017
</metadata>
<g transform="translate(0.000000,1000.000000) scale(0.100000,-0.100000)"
fill="#000000" stroke="none">
<path d="M2501 7500 c-4 -3 -7 -563 -6 -1245 l0 -1240 -1248 -3 -1247 -2 0
-1253 0 -1252 1238 1 c680 1 1242 2 1247 3 7 1 10 421 10 1251 l0 1250 1246 0
c989 0 1248 -3 1251 -12 2 -7 4 -570 4 -1250 -1 -819 2 -1239 9 -1241 9 -3
2457 -1 2480 2 7 1 10 421 10 1249 l0 1247 1253 3 1252 2 0 1248 0 1247 -1242
-1 c-684 -1 -1248 -2 -1253 -3 -7 -1 -10 -420 -10 -1246 l0 -1245 -1250 0
-1250 0 0 1241 c0 682 -2 1244 -5 1248 -6 8 -2478 9 -2489 1z"/>
</g>
</svg>
