<svg width="513" height="810" viewBox="0 0 513 810" fill="none" xmlns="http://www.w3.org/2000/svg">
<rect width="513" height="810" rx="15" fill="#24292E"/>
<path d="M53.0039 506V495.382H54.9731V496.81H55.3785L55.0503 497.158C55.0503 496.566 55.2176 496.09 55.5523 495.729C55.8869 495.369 56.3181 495.189 56.8458 495.189C57.4121 495.189 57.8497 495.42 58.1586 495.884C58.4803 496.347 58.6412 496.971 58.6412 497.756L58.2165 496.81H58.8729L58.6219 497.158C58.6219 496.566 58.7892 496.09 59.1238 495.729C59.4585 495.369 59.9025 495.189 60.4559 495.189C61.1123 495.189 61.6336 495.433 62.0197 495.922C62.4058 496.411 62.5989 497.074 62.5989 497.911V506H60.4752V498.007C60.4752 497.66 60.398 497.39 60.2436 497.197C60.0891 496.991 59.8639 496.888 59.5679 496.888C59.2847 496.888 59.0595 496.984 58.8922 497.177C58.7377 497.37 58.6605 497.647 58.6605 498.007V506H56.923V498.007C56.923 497.647 56.8458 497.37 56.6913 497.177C56.5369 496.984 56.3116 496.888 56.0156 496.888C55.7196 496.888 55.4944 496.984 55.3399 497.177C55.1983 497.37 55.1275 497.647 55.1275 498.007V506H53.0039ZM69.387 506.193C68.4861 506.193 67.7009 506.019 67.0317 505.672C66.3624 505.324 65.8412 504.842 65.4679 504.224C65.1075 503.593 64.9273 502.86 64.9273 502.023V499.359C64.9273 498.522 65.1075 497.795 65.4679 497.177C65.8412 496.547 66.3624 496.058 67.0317 495.71C67.7009 495.363 68.4861 495.189 69.387 495.189C70.2751 495.189 71.0473 495.363 71.7037 495.71C72.373 496.058 72.8878 496.547 73.2482 497.177C73.6214 497.795 73.808 498.522 73.808 499.359V501.27H67.2634V502.023C67.2634 502.769 67.4435 503.336 67.8039 503.722C68.1643 504.095 68.6984 504.282 69.4063 504.282C69.9469 504.282 70.3845 504.192 70.7191 504.012C71.0537 503.818 71.2661 503.542 71.3562 503.181H73.7308C73.5506 504.095 73.0615 504.829 72.2636 505.382C71.4785 505.923 70.5196 506.193 69.387 506.193ZM71.472 499.919V499.339C71.472 498.606 71.2983 498.046 70.9508 497.66C70.6033 497.261 70.082 497.061 69.387 497.061C68.692 497.061 68.1643 497.261 67.8039 497.66C67.4435 498.059 67.2634 498.625 67.2634 499.359V499.764L71.6458 499.726L71.472 499.919ZM82.102 506C81.0852 506 80.2872 505.717 79.7081 505.151C79.1418 504.584 78.8586 503.806 78.8586 502.815V497.563H75.982V495.382H78.8586V492.389H81.2911V495.382H85.3647V497.563H81.2911V502.815C81.2911 503.484 81.6193 503.818 82.2757 503.818H85.1716V506H82.102ZM88.2144 506V491.907H90.6276V495.382L90.5697 497.409H91.2261L90.5697 497.969C90.5697 497.094 90.8207 496.411 91.3226 495.922C91.8374 495.433 92.5389 495.189 93.4269 495.189C94.4695 495.189 95.2996 495.536 95.9174 496.231C96.548 496.926 96.8634 497.859 96.8634 499.031V506H94.4501V499.282C94.4501 498.638 94.2828 498.143 93.9482 497.795C93.6136 497.448 93.1438 497.274 92.5389 497.274C91.9468 497.274 91.4771 497.454 91.1295 497.814C90.7949 498.175 90.6276 498.69 90.6276 499.359V506H88.2144ZM104.096 506.174C103.195 506.174 102.409 506.006 101.74 505.672C101.084 505.324 100.569 504.842 100.196 504.224C99.8354 503.593 99.6552 502.853 99.6552 502.004V499.378C99.6552 498.529 99.8354 497.795 100.196 497.177C100.569 496.547 101.084 496.064 101.74 495.729C102.409 495.382 103.195 495.208 104.096 495.208C105.009 495.208 105.794 495.382 106.451 495.729C107.107 496.064 107.616 496.547 107.976 497.177C108.349 497.795 108.536 498.522 108.536 499.359V502.004C108.536 502.853 108.349 503.593 107.976 504.224C107.616 504.842 107.107 505.324 106.451 505.672C105.794 506.006 105.009 506.174 104.096 506.174ZM104.096 504.069C104.739 504.069 105.235 503.896 105.582 503.548C105.942 503.188 106.123 502.673 106.123 502.004V499.378C106.123 498.696 105.942 498.181 105.582 497.834C105.235 497.486 104.739 497.312 104.096 497.312C103.465 497.312 102.969 497.486 102.609 497.834C102.249 498.181 102.068 498.696 102.068 499.378V502.004C102.068 502.673 102.249 503.188 102.609 503.548C102.969 503.896 103.465 504.069 104.096 504.069ZM114.764 506.193C113.709 506.193 112.853 505.826 112.196 505.093C111.553 504.359 111.231 503.374 111.231 502.139V499.262C111.231 498.014 111.553 497.023 112.196 496.289C112.84 495.556 113.696 495.189 114.764 495.189C115.639 495.189 116.334 495.44 116.849 495.942C117.364 496.431 117.621 497.106 117.621 497.969L117.081 497.409H117.641L117.563 494.88V491.907H119.977V506H117.621V503.973H117.081L117.621 503.413C117.621 504.275 117.364 504.957 116.849 505.459C116.334 505.949 115.639 506.193 114.764 506.193ZM115.614 504.108C116.231 504.108 116.708 503.928 117.042 503.567C117.39 503.194 117.563 502.679 117.563 502.023V499.359C117.563 498.702 117.39 498.194 117.042 497.834C116.708 497.46 116.231 497.274 115.614 497.274C114.996 497.274 114.513 497.454 114.166 497.814C113.818 498.175 113.644 498.69 113.644 499.359V502.023C113.644 502.692 113.818 503.207 114.166 503.567C114.513 503.928 114.996 504.108 115.614 504.108ZM126.842 506.174C126.031 506.174 125.323 506.045 124.718 505.788C124.113 505.53 123.637 505.176 123.29 504.726C122.955 504.262 122.775 503.722 122.749 503.104H125.162C125.188 503.439 125.349 503.709 125.645 503.915C125.954 504.121 126.353 504.224 126.842 504.224H127.691C128.283 504.224 128.728 504.108 129.024 503.876C129.32 503.645 129.468 503.329 129.468 502.93C129.468 502.557 129.332 502.268 129.062 502.062C128.805 501.843 128.399 501.701 127.846 501.637L126.533 501.444C125.323 501.277 124.435 500.955 123.869 500.479C123.303 500.002 123.019 499.288 123.019 498.336C123.019 497.345 123.354 496.579 124.023 496.038C124.693 495.485 125.677 495.208 126.977 495.208H127.711C128.895 495.208 129.841 495.472 130.549 496C131.257 496.527 131.636 497.235 131.688 498.123H129.275C129.236 497.84 129.075 497.608 128.792 497.428C128.522 497.248 128.161 497.158 127.711 497.158H126.977C126.424 497.158 126.018 497.261 125.761 497.467C125.516 497.66 125.394 497.949 125.394 498.336C125.394 498.696 125.503 498.966 125.722 499.146C125.941 499.314 126.295 499.436 126.784 499.513L128.155 499.706C129.416 499.886 130.343 500.228 130.935 500.73C131.54 501.219 131.842 501.946 131.842 502.911C131.842 503.941 131.488 504.745 130.78 505.324C130.085 505.891 129.056 506.174 127.691 506.174H126.842Z" fill="#939393"/>
<path d="M111.118 565L116.998 541.673H122.143L128.054 565H123.964L122.686 559.344H116.487L115.209 565H111.118ZM117.222 556.085H121.951L120.545 549.822C120.311 548.778 120.108 547.84 119.938 547.01C119.767 546.158 119.65 545.54 119.586 545.156C119.522 545.54 119.405 546.158 119.235 547.01C119.086 547.84 118.883 548.767 118.628 549.79L117.222 556.085ZM132.483 565L129.799 547.425H133.123L134.592 558.194C134.678 558.811 134.752 559.493 134.816 560.239C134.901 560.984 134.965 561.602 135.008 562.092C135.072 561.602 135.157 560.984 135.263 560.239C135.37 559.493 135.466 558.811 135.551 558.194L137.213 547.425H140.312L141.942 558.194C142.027 558.811 142.123 559.504 142.23 560.271C142.336 561.016 142.421 561.634 142.485 562.124C142.528 561.613 142.592 560.984 142.677 560.239C142.783 559.472 142.869 558.79 142.933 558.194L144.498 547.425H147.694L144.946 565H140.824L139.29 554.167C139.205 553.571 139.109 552.911 139.002 552.186C138.896 551.441 138.81 550.834 138.747 550.365C138.683 550.834 138.597 551.441 138.491 552.186C138.406 552.911 138.31 553.571 138.203 554.167L136.606 565H132.483ZM155.957 565.32C154.147 565.32 152.719 564.84 151.676 563.882C150.632 562.923 150.11 561.634 150.11 560.015C150.11 558.29 150.685 556.958 151.835 556.021C152.986 555.083 154.615 554.615 156.724 554.615H161.102V553.113C161.102 552.261 160.825 551.6 160.271 551.132C159.717 550.642 158.961 550.397 158.003 550.397C157.129 550.397 156.405 550.589 155.83 550.972C155.254 551.355 154.914 551.877 154.807 552.538H150.909C151.1 550.876 151.846 549.555 153.145 548.575C154.445 547.595 156.107 547.106 158.13 547.106C160.282 547.106 161.976 547.649 163.211 548.735C164.468 549.8 165.096 551.249 165.096 553.081V565H161.23V561.932H160.591L161.23 561.07C161.23 562.369 160.751 563.402 159.792 564.169C158.833 564.936 157.555 565.32 155.957 565.32ZM157.268 562.316C158.397 562.316 159.313 562.028 160.016 561.453C160.74 560.878 161.102 560.132 161.102 559.216V557.075H156.788C155.979 557.075 155.329 557.31 154.839 557.778C154.349 558.247 154.104 558.865 154.104 559.632C154.104 560.462 154.381 561.123 154.935 561.613C155.51 562.081 156.288 562.316 157.268 562.316ZM170.037 565V541.673H174.031V554.327H176.811L181.093 547.425H185.567L180.262 555.925L185.663 565H181.093L176.811 557.714H174.031V565H170.037ZM196.259 565.32C194.768 565.32 193.468 565.032 192.361 564.457C191.253 563.882 190.39 563.083 189.772 562.06C189.176 561.016 188.878 559.802 188.878 558.417V554.008C188.878 552.623 189.176 551.419 189.772 550.397C190.39 549.353 191.253 548.543 192.361 547.968C193.468 547.393 194.768 547.106 196.259 547.106C197.729 547.106 199.007 547.393 200.094 547.968C201.201 548.543 202.053 549.353 202.65 550.397C203.268 551.419 203.577 552.623 203.577 554.008V557.171H192.744V558.417C192.744 559.653 193.042 560.59 193.639 561.229C194.235 561.847 195.119 562.156 196.291 562.156C197.186 562.156 197.91 562.007 198.464 561.709C199.018 561.389 199.369 560.931 199.518 560.335H203.449C203.151 561.847 202.341 563.061 201.02 563.977C199.721 564.872 198.134 565.32 196.259 565.32ZM199.71 554.934V553.976C199.71 552.761 199.422 551.835 198.847 551.196C198.272 550.535 197.409 550.205 196.259 550.205C195.109 550.205 194.235 550.535 193.639 551.196C193.042 551.856 192.744 552.793 192.744 554.008V554.679L199.998 554.615L199.71 554.934ZM221.299 568.835C218.061 567.982 215.558 566.481 213.79 564.329C212.021 562.156 211.137 559.514 211.137 556.404V550.621C211.137 548.575 211.542 546.722 212.352 545.06C213.182 543.377 214.354 541.95 215.867 540.779C217.4 539.586 219.211 538.712 221.299 538.158V542.089C220.042 542.387 218.945 542.93 218.007 543.718C217.091 544.507 216.388 545.486 215.898 546.658C215.409 547.83 215.164 549.151 215.164 550.621V556.404C215.164 557.832 215.409 559.131 215.898 560.303C216.388 561.453 217.091 562.422 218.007 563.211C218.945 563.977 220.042 564.51 221.299 564.808V568.835ZM228.636 568.835V564.808C229.914 564.51 231.011 563.977 231.927 563.211C232.843 562.422 233.546 561.453 234.036 560.303C234.526 559.131 234.771 557.832 234.771 556.404V550.621C234.771 549.151 234.526 547.83 234.036 546.658C233.546 545.486 232.843 544.507 231.927 543.718C231.011 542.93 229.914 542.387 228.636 542.089V538.158C230.745 538.712 232.556 539.586 234.068 540.779C235.581 541.95 236.742 543.377 237.551 545.06C238.382 546.722 238.797 548.575 238.797 550.621V556.404C238.797 559.514 237.913 562.156 236.145 564.329C234.377 566.481 231.874 567.982 228.636 568.835Z" fill="#939393"/>
<path d="M59 543H61.6154C62.9749 543 64.0769 544.102 64.0769 545.462V551.38C64.0769 552.439 64.7549 553.38 65.7601 553.715L66.6154 554M66.6154 554L65.173 554.962C64.4882 555.418 64.0769 556.187 64.0769 557.01V562.538C64.0769 563.898 62.9749 565 61.6154 565H59M66.6154 554H70.8462" stroke="#B55353" stroke-width="9" stroke-linecap="round" stroke-linejoin="round"/>
<path d="M53.9233 543H51.308C49.9485 543 48.8464 544.102 48.8464 545.462V551.38C48.8464 552.439 48.1684 553.38 47.1633 553.715L46.308 554M46.308 554L47.7503 554.962C48.4351 555.418 48.8464 556.187 48.8464 557.01V562.538C48.8464 563.898 49.9485 565 51.308 565H53.9233M46.308 554H42.0772" stroke="#B55353" stroke-width="9" stroke-linecap="round" stroke-linejoin="round"/>
<path d="M59 543H61.6154C62.9749 543 64.0769 544.102 64.0769 545.462V551.38C64.0769 552.439 64.7549 553.38 65.7601 553.715L66.6154 554M66.6154 554L65.173 554.962C64.4882 555.418 64.0769 556.187 64.0769 557.01V562.538C64.0769 563.898 62.9749 565 61.6154 565H59M66.6154 554H70.8462" stroke="#24292E" stroke-width="4" stroke-linecap="round" stroke-linejoin="round"/>
<path d="M53.9233 543H51.308C49.9485 543 48.8464 544.102 48.8464 545.462V551.38C48.8464 552.439 48.1684 553.38 47.1633 553.715L46.308 554M46.308 554L47.7503 554.962C48.4351 555.418 48.8464 556.187 48.8464 557.01V562.538C48.8464 563.898 49.9485 565 51.308 565H53.9233M46.308 554H42.0772" stroke="#24292E" stroke-width="4" stroke-linecap="round" stroke-linejoin="round"/>
<path d="M119.586 627.32C117.307 627.32 115.517 626.702 114.218 625.466C112.94 624.209 112.301 622.505 112.301 620.353V603.673H116.327V620.322C116.327 621.429 116.604 622.292 117.158 622.91C117.712 623.528 118.521 623.837 119.586 623.837C120.63 623.837 121.429 623.528 121.983 622.91C122.558 622.292 122.846 621.429 122.846 620.322V603.673H126.872V620.353C126.872 622.505 126.233 624.209 124.955 625.466C123.676 626.702 121.887 627.32 119.586 627.32ZM131.621 632.752V609.425H135.519V612.78H136.414L135.519 613.707C135.519 612.28 135.945 611.161 136.797 610.352C137.649 609.521 138.8 609.106 140.248 609.106C142.017 609.106 143.433 609.713 144.498 610.927C145.563 612.141 146.096 613.771 146.096 615.816V620.577C146.096 621.941 145.851 623.134 145.361 624.156C144.892 625.157 144.221 625.935 143.348 626.489C142.475 627.043 141.441 627.32 140.248 627.32C138.8 627.32 137.649 626.915 136.797 626.105C135.945 625.274 135.519 624.145 135.519 622.718L136.414 623.645H135.487L135.615 627.831V632.752H131.621ZM138.842 623.868C139.865 623.868 140.664 623.57 141.239 622.974C141.814 622.377 142.102 621.525 142.102 620.417V616.008C142.102 614.9 141.814 614.048 141.239 613.451C140.664 612.855 139.865 612.557 138.842 612.557C137.841 612.557 137.053 612.865 136.478 613.483C135.903 614.08 135.615 614.921 135.615 616.008V620.417C135.615 621.504 135.903 622.356 136.478 622.974C137.053 623.57 137.841 623.868 138.842 623.868ZM156.405 627.32C154.658 627.32 153.241 626.712 152.155 625.498C151.09 624.284 150.557 622.654 150.557 620.609V615.848C150.557 613.782 151.09 612.141 152.155 610.927C153.22 609.713 154.637 609.106 156.405 609.106C157.853 609.106 159.004 609.521 159.856 610.352C160.708 611.161 161.134 612.28 161.134 613.707L160.239 612.78H161.166L161.038 608.594V603.673H165.033V627H161.134V623.645H160.239L161.134 622.718C161.134 624.145 160.708 625.274 159.856 626.105C159.004 626.915 157.853 627.32 156.405 627.32ZM157.811 623.868C158.833 623.868 159.622 623.57 160.175 622.974C160.751 622.356 161.038 621.504 161.038 620.417V616.008C161.038 614.921 160.751 614.08 160.175 613.483C159.622 612.865 158.833 612.557 157.811 612.557C156.788 612.557 155.989 612.855 155.414 613.451C154.839 614.048 154.551 614.9 154.551 616.008V620.417C154.551 621.525 154.839 622.377 155.414 622.974C155.989 623.57 156.788 623.868 157.811 623.868ZM175.118 627.32C173.307 627.32 171.88 626.84 170.836 625.882C169.792 624.923 169.27 623.634 169.27 622.015C169.27 620.29 169.845 618.958 170.996 618.021C172.146 617.083 173.776 616.615 175.885 616.615H180.262V615.113C180.262 614.261 179.985 613.6 179.431 613.132C178.878 612.642 178.121 612.397 177.163 612.397C176.289 612.397 175.565 612.589 174.99 612.972C174.415 613.355 174.074 613.877 173.967 614.538H170.069C170.261 612.876 171.006 611.555 172.306 610.575C173.605 609.595 175.267 609.106 177.291 609.106C179.442 609.106 181.136 609.649 182.371 610.735C183.628 611.8 184.257 613.249 184.257 615.081V627H180.39V623.932H179.751L180.39 623.07C180.39 624.369 179.911 625.402 178.952 626.169C177.994 626.936 176.715 627.32 175.118 627.32ZM176.428 624.316C177.557 624.316 178.473 624.028 179.176 623.453C179.9 622.878 180.262 622.132 180.262 621.216V619.075H175.948C175.139 619.075 174.489 619.31 173.999 619.778C173.509 620.247 173.264 620.865 173.264 621.632C173.264 622.462 173.541 623.123 174.095 623.613C174.67 624.081 175.448 624.316 176.428 624.316ZM198.144 627C196.461 627 195.141 626.531 194.182 625.594C193.245 624.657 192.776 623.368 192.776 621.728V613.036H188.015V609.425H192.776V604.472H196.802V609.425H203.545V613.036H196.802V621.728C196.802 622.835 197.345 623.389 198.432 623.389H203.225V627H198.144ZM215.419 627.32C213.928 627.32 212.628 627.032 211.521 626.457C210.413 625.882 209.55 625.083 208.932 624.06C208.336 623.016 208.038 621.802 208.038 620.417V616.008C208.038 614.623 208.336 613.419 208.932 612.397C209.55 611.353 210.413 610.543 211.521 609.968C212.628 609.393 213.928 609.106 215.419 609.106C216.889 609.106 218.167 609.393 219.254 609.968C220.361 610.543 221.214 611.353 221.81 612.397C222.428 613.419 222.737 614.623 222.737 616.008V619.171H211.904V620.417C211.904 621.653 212.202 622.59 212.799 623.229C213.395 623.847 214.279 624.156 215.451 624.156C216.346 624.156 217.07 624.007 217.624 623.709C218.178 623.389 218.529 622.931 218.679 622.335H222.609C222.311 623.847 221.501 625.061 220.18 625.977C218.881 626.872 217.294 627.32 215.419 627.32ZM218.87 616.934V615.976C218.87 614.761 218.583 613.835 218.007 613.196C217.432 612.535 216.57 612.205 215.419 612.205C214.269 612.205 213.395 612.535 212.799 613.196C212.202 613.856 211.904 614.793 211.904 616.008V616.679L219.158 616.615L218.87 616.934ZM240.459 630.835C237.221 629.982 234.718 628.481 232.95 626.329C231.182 624.156 230.297 621.514 230.297 618.404V612.621C230.297 610.575 230.702 608.722 231.512 607.06C232.343 605.377 233.514 603.95 235.027 602.779C236.561 601.586 238.371 600.712 240.459 600.158V604.089C239.202 604.387 238.105 604.93 237.168 605.718C236.252 606.507 235.549 607.486 235.059 608.658C234.569 609.83 234.324 611.151 234.324 612.621V618.404C234.324 619.832 234.569 621.131 235.059 622.303C235.549 623.453 236.252 624.422 237.168 625.211C238.105 625.977 239.202 626.51 240.459 626.808V630.835ZM247.796 630.835V626.808C249.074 626.51 250.171 625.977 251.087 625.211C252.003 624.422 252.706 623.453 253.196 622.303C253.686 621.131 253.931 619.832 253.931 618.404V612.621C253.931 611.151 253.686 609.83 253.196 608.658C252.706 607.486 252.003 606.507 251.087 605.718C250.171 604.93 249.074 604.387 247.796 604.089V600.158C249.905 600.712 251.716 601.586 253.228 602.779C254.741 603.95 255.902 605.377 256.711 607.06C257.542 608.722 257.958 610.575 257.958 612.621V618.404C257.958 621.514 257.073 624.156 255.305 626.329C253.537 628.481 251.034 629.982 247.796 630.835Z" fill="#939393"/>
<path d="M59 605H61.6154C62.9749 605 64.0769 606.102 64.0769 607.462V613.38C64.0769 614.439 64.7549 615.38 65.7601 615.715L66.6154 616M66.6154 616L65.173 616.962C64.4882 617.418 64.0769 618.187 64.0769 619.01V624.538C64.0769 625.898 62.9749 627 61.6154 627H59M66.6154 616H70.8462" stroke="#B55353" stroke-width="9" stroke-linecap="round" stroke-linejoin="round"/>
<path d="M53.9233 605H51.308C49.9485 605 48.8464 606.102 48.8464 607.462V613.38C48.8464 614.439 48.1684 615.38 47.1633 615.715L46.308 616M46.308 616L47.7503 616.962C48.4351 617.418 48.8464 618.187 48.8464 619.01V624.538C48.8464 625.898 49.9485 627 51.308 627H53.9233M46.308 616H42.0772" stroke="#B55353" stroke-width="9" stroke-linecap="round" stroke-linejoin="round"/>
<path d="M59 605H61.6154C62.9749 605 64.0769 606.102 64.0769 607.462V613.38C64.0769 614.439 64.7549 615.38 65.7601 615.715L66.6154 616M66.6154 616L65.173 616.962C64.4882 617.418 64.0769 618.187 64.0769 619.01V624.538C64.0769 625.898 62.9749 627 61.6154 627H59M66.6154 616H70.8462" stroke="#24292E" stroke-width="4" stroke-linecap="round" stroke-linejoin="round"/>
<path d="M53.9233 605H51.308C49.9485 605 48.8464 606.102 48.8464 607.462V613.38C48.8464 614.439 48.1684 615.38 47.1633 615.715L46.308 616M46.308 616L47.7503 616.962C48.4351 617.418 48.8464 618.187 48.8464 619.01V624.538C48.8464 625.898 49.9485 627 51.308 627H53.9233M46.308 616H42.0772" stroke="#24292E" stroke-width="4" stroke-linecap="round" stroke-linejoin="round"/>
<path d="M112.556 689V665.673H127.064V669.38H116.487V675.611H126.233V679.318H116.551V689H112.556ZM131.589 689V685.357H137.724V675.036H132.388V671.425H141.559V685.357H146.991V689H131.589ZM139.322 668.485C138.512 668.485 137.873 668.283 137.404 667.878C136.936 667.452 136.701 666.888 136.701 666.185C136.701 665.482 136.936 664.928 137.404 664.523C137.873 664.097 138.512 663.884 139.322 663.884C140.131 663.884 140.77 664.097 141.239 664.523C141.708 664.928 141.942 665.482 141.942 666.185C141.942 666.888 141.708 667.452 141.239 667.878C140.77 668.283 140.131 668.485 139.322 668.485ZM149.471 689L155.606 679.925L149.886 671.425H154.392L157.108 675.739C157.278 675.995 157.427 676.282 157.555 676.602C157.704 676.921 157.821 677.177 157.907 677.369C157.992 677.177 158.109 676.921 158.258 676.602C158.407 676.282 158.556 675.995 158.706 675.739L161.454 671.425H165.959L160.239 679.925L166.343 689H161.805L158.769 684.175C158.599 683.898 158.439 683.6 158.29 683.28C158.141 682.961 158.013 682.705 157.907 682.513C157.821 682.705 157.704 682.961 157.555 683.28C157.406 683.6 157.246 683.898 157.076 684.175L153.976 689H149.471ZM177.099 689.32C175.608 689.32 174.308 689.032 173.2 688.457C172.093 687.882 171.23 687.083 170.612 686.06C170.016 685.016 169.717 683.802 169.717 682.417V678.008C169.717 676.623 170.016 675.419 170.612 674.397C171.23 673.353 172.093 672.543 173.2 671.968C174.308 671.393 175.608 671.106 177.099 671.106C178.569 671.106 179.847 671.393 180.933 671.968C182.041 672.543 182.893 673.353 183.49 674.397C184.107 675.419 184.416 676.623 184.416 678.008V681.171H173.584V682.417C173.584 683.653 173.882 684.59 174.479 685.229C175.075 685.847 175.959 686.156 177.131 686.156C178.026 686.156 178.75 686.007 179.304 685.709C179.858 685.389 180.209 684.931 180.358 684.335H184.289C183.99 685.847 183.181 687.061 181.86 687.977C180.561 688.872 178.973 689.32 177.099 689.32ZM180.55 678.934V677.976C180.55 676.761 180.262 675.835 179.687 675.196C179.112 674.535 178.249 674.205 177.099 674.205C175.948 674.205 175.075 674.535 174.479 675.196C173.882 675.856 173.584 676.793 173.584 678.008V678.679L180.837 678.615L180.55 678.934ZM194.725 689.32C192.978 689.32 191.562 688.712 190.475 687.498C189.41 686.284 188.878 684.654 188.878 682.609V677.848C188.878 675.782 189.41 674.141 190.475 672.927C191.54 671.713 192.957 671.106 194.725 671.106C196.174 671.106 197.324 671.521 198.176 672.352C199.028 673.161 199.454 674.28 199.454 675.707L198.56 674.78H199.486L199.359 670.594V665.673H203.353V689H199.454V685.645H198.56L199.454 684.718C199.454 686.145 199.028 687.274 198.176 688.105C197.324 688.915 196.174 689.32 194.725 689.32ZM196.131 685.868C197.154 685.868 197.942 685.57 198.496 684.974C199.071 684.356 199.359 683.504 199.359 682.417V678.008C199.359 676.921 199.071 676.08 198.496 675.483C197.942 674.865 197.154 674.557 196.131 674.557C195.109 674.557 194.31 674.855 193.735 675.451C193.159 676.048 192.872 676.9 192.872 678.008V682.417C192.872 683.525 193.159 684.377 193.735 684.974C194.31 685.57 195.109 685.868 196.131 685.868ZM215.387 689.32C213.108 689.32 211.318 688.702 210.019 687.466C208.741 686.209 208.102 684.505 208.102 682.353V665.673H212.128V682.322C212.128 683.429 212.405 684.292 212.959 684.91C213.513 685.528 214.322 685.837 215.387 685.837C216.431 685.837 217.23 685.528 217.784 684.91C218.359 684.292 218.647 683.429 218.647 682.322V665.673H222.673V682.353C222.673 684.505 222.034 686.209 220.756 687.466C219.477 688.702 217.688 689.32 215.387 689.32ZM227.422 694.752V671.425H231.32V674.78H232.215L231.32 675.707C231.32 674.28 231.746 673.161 232.598 672.352C233.45 671.521 234.601 671.106 236.049 671.106C237.817 671.106 239.234 671.713 240.299 672.927C241.364 674.141 241.897 675.771 241.897 677.816V682.577C241.897 683.941 241.652 685.134 241.162 686.156C240.693 687.157 240.022 687.935 239.149 688.489C238.275 689.043 237.242 689.32 236.049 689.32C234.601 689.32 233.45 688.915 232.598 688.105C231.746 687.274 231.32 686.145 231.32 684.718L232.215 685.645H231.288L231.416 689.831V694.752H227.422ZM234.643 685.868C235.666 685.868 236.465 685.57 237.04 684.974C237.615 684.377 237.903 683.525 237.903 682.417V678.008C237.903 676.9 237.615 676.048 237.04 675.451C236.465 674.855 235.666 674.557 234.643 674.557C233.642 674.557 232.854 674.865 232.279 675.483C231.703 676.08 231.416 676.921 231.416 678.008V682.417C231.416 683.504 231.703 684.356 232.279 684.974C232.854 685.57 233.642 685.868 234.643 685.868ZM252.206 689.32C250.459 689.32 249.042 688.712 247.956 687.498C246.891 686.284 246.358 684.654 246.358 682.609V677.848C246.358 675.782 246.891 674.141 247.956 672.927C249.021 671.713 250.438 671.106 252.206 671.106C253.654 671.106 254.805 671.521 255.657 672.352C256.509 673.161 256.935 674.28 256.935 675.707L256.04 674.78H256.967L256.839 670.594V665.673H260.833V689H256.935V685.645H256.04L256.935 684.718C256.935 686.145 256.509 687.274 255.657 688.105C254.805 688.915 253.654 689.32 252.206 689.32ZM253.612 685.868C254.634 685.868 255.422 685.57 255.976 684.974C256.552 684.356 256.839 683.504 256.839 682.417V678.008C256.839 676.921 256.552 676.08 255.976 675.483C255.422 674.865 254.634 674.557 253.612 674.557C252.589 674.557 251.79 674.855 251.215 675.451C250.64 676.048 250.352 676.9 250.352 678.008V682.417C250.352 683.525 250.64 684.377 251.215 684.974C251.79 685.57 252.589 685.868 253.612 685.868ZM270.919 689.32C269.108 689.32 267.68 688.84 266.637 687.882C265.593 686.923 265.071 685.634 265.071 684.015C265.071 682.29 265.646 680.958 266.796 680.021C267.947 679.083 269.576 678.615 271.685 678.615H276.063V677.113C276.063 676.261 275.786 675.6 275.232 675.132C274.679 674.642 273.922 674.397 272.964 674.397C272.09 674.397 271.366 674.589 270.791 674.972C270.216 675.355 269.875 675.877 269.768 676.538H265.87C266.061 674.876 266.807 673.555 268.107 672.575C269.406 671.595 271.068 671.106 273.091 671.106C275.243 671.106 276.937 671.649 278.172 672.735C279.429 673.8 280.058 675.249 280.058 677.081V689H276.191V685.932H275.552L276.191 685.07C276.191 686.369 275.712 687.402 274.753 688.169C273.794 688.936 272.516 689.32 270.919 689.32ZM272.229 686.316C273.358 686.316 274.274 686.028 274.977 685.453C275.701 684.878 276.063 684.132 276.063 683.216V681.075H271.749C270.94 681.075 270.29 681.31 269.8 681.778C269.31 682.247 269.065 682.865 269.065 683.632C269.065 684.462 269.342 685.123 269.896 685.613C270.471 686.081 271.249 686.316 272.229 686.316ZM293.945 689C292.262 689 290.942 688.531 289.983 687.594C289.046 686.657 288.577 685.368 288.577 683.728V675.036H283.816V671.425H288.577V666.472H292.603V671.425H299.346V675.036H292.603V683.728C292.603 684.835 293.146 685.389 294.233 685.389H299.026V689H293.945ZM311.22 689.32C309.729 689.32 308.429 689.032 307.322 688.457C306.214 687.882 305.351 687.083 304.733 686.06C304.137 685.016 303.839 683.802 303.839 682.417V678.008C303.839 676.623 304.137 675.419 304.733 674.397C305.351 673.353 306.214 672.543 307.322 671.968C308.429 671.393 309.729 671.106 311.22 671.106C312.69 671.106 313.968 671.393 315.055 671.968C316.162 672.543 317.014 673.353 317.611 674.397C318.229 675.419 318.538 676.623 318.538 678.008V681.171H307.705V682.417C307.705 683.653 308.003 684.59 308.6 685.229C309.196 685.847 310.08 686.156 311.252 686.156C312.147 686.156 312.871 686.007 313.425 685.709C313.979 685.389 314.33 684.931 314.479 684.335H318.41C318.112 685.847 317.302 687.061 315.981 687.977C314.682 688.872 313.095 689.32 311.22 689.32ZM314.671 678.934V677.976C314.671 676.761 314.384 675.835 313.808 675.196C313.233 674.535 312.37 674.205 311.22 674.205C310.07 674.205 309.196 674.535 308.6 675.196C308.003 675.856 307.705 676.793 307.705 678.008V678.679L314.959 678.615L314.671 678.934ZM336.26 692.835C333.022 691.982 330.519 690.481 328.751 688.329C326.982 686.156 326.098 683.514 326.098 680.404V674.621C326.098 672.575 326.503 670.722 327.313 669.06C328.143 667.377 329.315 665.95 330.828 664.779C332.361 663.586 334.172 662.712 336.26 662.158V666.089C335.003 666.387 333.906 666.93 332.969 667.718C332.053 668.507 331.35 669.486 330.86 670.658C330.37 671.83 330.125 673.151 330.125 674.621V680.404C330.125 681.832 330.37 683.131 330.86 684.303C331.35 685.453 332.053 686.422 332.969 687.211C333.906 687.977 335.003 688.51 336.26 688.808V692.835ZM343.597 692.835V688.808C344.875 688.51 345.972 687.977 346.888 687.211C347.804 686.422 348.507 685.453 348.997 684.303C349.487 683.131 349.732 681.832 349.732 680.404V674.621C349.732 673.151 349.487 671.83 348.997 670.658C348.507 669.486 347.804 668.507 346.888 667.718C345.972 666.93 344.875 666.387 343.597 666.089V662.158C345.706 662.712 347.517 663.586 349.029 664.779C350.542 665.95 351.703 667.377 352.512 669.06C353.343 670.722 353.758 672.575 353.758 674.621V680.404C353.758 683.514 352.874 686.156 351.106 688.329C349.338 690.481 346.835 691.982 343.597 692.835Z" fill="#939393"/>
<path d="M59 667H61.6154C62.9749 667 64.0769 668.102 64.0769 669.462V675.38C64.0769 676.439 64.7549 677.38 65.7601 677.715L66.6154 678M66.6154 678L65.173 678.962C64.4882 679.418 64.0769 680.187 64.0769 681.01V686.538C64.0769 687.898 62.9749 689 61.6154 689H59M66.6154 678H70.8462" stroke="#B55353" stroke-width="9" stroke-linecap="round" stroke-linejoin="round"/>
<path d="M53.9233 667H51.308C49.9485 667 48.8464 668.102 48.8464 669.462V675.38C48.8464 676.439 48.1684 677.38 47.1633 677.715L46.308 678M46.308 678L47.7503 678.962C48.4351 679.418 48.8464 680.187 48.8464 681.01V686.538C48.8464 687.898 49.9485 689 51.308 689H53.9233M46.308 678H42.0772" stroke="#B55353" stroke-width="9" stroke-linecap="round" stroke-linejoin="round"/>
<path d="M59 667H61.6154C62.9749 667 64.0769 668.102 64.0769 669.462V675.38C64.0769 676.439 64.7549 677.38 65.7601 677.715L66.6154 678M66.6154 678L65.173 678.962C64.4882 679.418 64.0769 680.187 64.0769 681.01V686.538C64.0769 687.898 62.9749 689 61.6154 689H59M66.6154 678H70.8462" stroke="#24292E" stroke-width="4" stroke-linecap="round" stroke-linejoin="round"/>
<path d="M53.9233 667H51.308C49.9485 667 48.8464 668.102 48.8464 669.462V675.38C48.8464 676.439 48.1684 677.38 47.1633 677.715L46.308 678M46.308 678L47.7503 678.962C48.4351 679.418 48.8464 680.187 48.8464 681.01V686.538C48.8464 687.898 49.9485 689 51.308 689H53.9233M46.308 678H42.0772" stroke="#24292E" stroke-width="4" stroke-linecap="round" stroke-linejoin="round"/>
<path d="M119.65 751.32C118.053 751.32 116.668 751.053 115.496 750.521C114.325 749.988 113.419 749.232 112.78 748.252C112.162 747.251 111.843 746.079 111.821 744.737H115.816C115.816 745.696 116.157 746.452 116.838 747.006C117.541 747.538 118.489 747.805 119.682 747.805C120.833 747.805 121.727 747.538 122.366 747.006C123.027 746.473 123.357 745.738 123.357 744.801C123.357 744.013 123.123 743.331 122.654 742.756C122.207 742.159 121.557 741.755 120.705 741.541L118.021 740.807C116.189 740.338 114.772 739.496 113.771 738.282C112.791 737.068 112.301 735.598 112.301 733.872C112.301 732.552 112.599 731.401 113.195 730.421C113.792 729.441 114.633 728.685 115.72 728.153C116.828 727.62 118.127 727.354 119.618 727.354C121.876 727.354 123.666 727.94 124.987 729.111C126.307 730.262 126.978 731.817 127 733.777H123.005C123.005 732.861 122.707 732.147 122.111 731.636C121.514 731.103 120.673 730.837 119.586 730.837C118.542 730.837 117.733 731.082 117.158 731.572C116.583 732.062 116.295 732.754 116.295 733.649C116.295 734.458 116.508 735.151 116.934 735.726C117.381 736.28 118.021 736.674 118.851 736.908L121.631 737.675C123.485 738.144 124.901 738.985 125.881 740.199C126.861 741.392 127.351 742.873 127.351 744.641C127.351 745.962 127.032 747.134 126.393 748.156C125.754 749.157 124.859 749.935 123.708 750.489C122.558 751.043 121.205 751.32 119.65 751.32ZM131.621 751V727.673H135.615V733.425L135.519 736.78H136.606L135.519 737.707C135.519 736.258 135.935 735.129 136.765 734.32C137.617 733.51 138.778 733.106 140.248 733.106C141.974 733.106 143.348 733.681 144.37 734.831C145.414 735.981 145.936 737.526 145.936 739.464V751H141.942V739.88C141.942 738.815 141.665 737.995 141.111 737.419C140.557 736.844 139.78 736.557 138.778 736.557C137.799 736.557 137.021 736.855 136.446 737.451C135.892 738.048 135.615 738.9 135.615 740.008V751H131.621ZM157.907 751.288C156.415 751.288 155.116 751.011 154.008 750.457C152.922 749.882 152.07 749.083 151.452 748.06C150.855 747.016 150.557 745.791 150.557 744.385V740.04C150.557 738.634 150.855 737.419 151.452 736.397C152.07 735.353 152.922 734.554 154.008 734C155.116 733.425 156.415 733.137 157.907 733.137C159.419 733.137 160.719 733.425 161.805 734C162.892 734.554 163.733 735.353 164.33 736.397C164.947 737.419 165.256 738.623 165.256 740.008V744.385C165.256 745.791 164.947 747.016 164.33 748.06C163.733 749.083 162.892 749.882 161.805 750.457C160.719 751.011 159.419 751.288 157.907 751.288ZM157.907 747.805C158.972 747.805 159.792 747.517 160.367 746.942C160.964 746.345 161.262 745.493 161.262 744.385V740.04C161.262 738.911 160.964 738.058 160.367 737.483C159.792 736.908 158.972 736.621 157.907 736.621C156.863 736.621 156.043 736.908 155.446 737.483C154.85 738.058 154.551 738.911 154.551 740.04V744.385C154.551 745.493 154.85 746.345 155.446 746.942C156.043 747.517 156.863 747.805 157.907 747.805ZM177.067 751.288C175.576 751.288 174.276 751.011 173.168 750.457C172.082 749.882 171.23 749.083 170.612 748.06C170.016 747.016 169.717 745.791 169.717 744.385V740.04C169.717 738.634 170.016 737.419 170.612 736.397C171.23 735.353 172.082 734.554 173.168 734C174.276 733.425 175.576 733.137 177.067 733.137C178.579 733.137 179.879 733.425 180.965 734C182.052 734.554 182.893 735.353 183.49 736.397C184.107 737.419 184.416 738.623 184.416 740.008V744.385C184.416 745.791 184.107 747.016 183.49 748.06C182.893 749.083 182.052 749.882 180.965 750.457C179.879 751.011 178.579 751.288 177.067 751.288ZM177.067 747.805C178.132 747.805 178.952 747.517 179.527 746.942C180.124 746.345 180.422 745.493 180.422 744.385V740.04C180.422 738.911 180.124 738.058 179.527 737.483C178.952 736.908 178.132 736.621 177.067 736.621C176.023 736.621 175.203 736.908 174.606 737.483C174.01 738.058 173.712 738.911 173.712 740.04V744.385C173.712 745.493 174.01 746.345 174.606 746.942C175.203 747.517 176.023 747.805 177.067 747.805ZM198.144 751C196.461 751 195.141 750.531 194.182 749.594C193.245 748.657 192.776 747.368 192.776 745.728V737.036H188.015V733.425H192.776V728.472H196.802V733.425H203.545V737.036H196.802V745.728C196.802 746.835 197.345 747.389 198.432 747.389H203.225V751H198.144ZM221.299 754.835C218.061 753.982 215.558 752.481 213.79 750.329C212.021 748.156 211.137 745.514 211.137 742.404V736.621C211.137 734.575 211.542 732.722 212.352 731.06C213.182 729.377 214.354 727.95 215.867 726.779C217.4 725.586 219.211 724.712 221.299 724.158V728.089C220.042 728.387 218.945 728.93 218.007 729.718C217.091 730.507 216.388 731.486 215.898 732.658C215.409 733.83 215.164 735.151 215.164 736.621V742.404C215.164 743.832 215.409 745.131 215.898 746.303C216.388 747.453 217.091 748.422 218.007 749.211C218.945 749.977 220.042 750.51 221.299 750.808V754.835ZM228.636 754.835V750.808C229.914 750.51 231.011 749.977 231.927 749.211C232.843 748.422 233.546 747.453 234.036 746.303C234.526 745.131 234.771 743.832 234.771 742.404V736.621C234.771 735.151 234.526 733.83 234.036 732.658C233.546 731.486 232.843 730.507 231.927 729.718C231.011 728.93 229.914 728.387 228.636 728.089V724.158C230.745 724.712 232.556 725.586 234.068 726.779C235.581 727.95 236.742 729.377 237.551 731.06C238.382 732.722 238.797 734.575 238.797 736.621V742.404C238.797 745.514 237.913 748.156 236.145 750.329C234.377 752.481 231.874 753.982 228.636 754.835Z" fill="#939393"/>
<path d="M66.12 734.406L60.07 730.346C59.7515 730.129 59.3773 730.009 58.9924 730.001C58.6074 729.992 58.2281 730.094 57.9 730.296L47.95 736.416C47.6599 736.594 47.4204 736.845 47.2541 737.142C47.0878 737.44 47.0004 737.775 47 738.116V743.936C46.9995 744.263 47.0795 744.586 47.2329 744.875C47.3864 745.165 47.6086 745.412 47.88 745.596L53.93 749.666C54.2485 749.882 54.6227 750.002 55.0076 750.011C55.3926 750.019 55.7719 749.917 56.1 749.716L66.05 743.596C66.3401 743.417 66.5796 743.166 66.7459 742.869C66.9122 742.571 66.9996 742.236 67 741.896V736.066C67.0005 735.738 66.9205 735.415 66.7671 735.126C66.6136 734.836 66.3914 734.589 66.12 734.406Z" stroke="#7DC877" stroke-width="12" stroke-linecap="round" stroke-linejoin="round"/>
<path d="M54.9998 750.005V742.005M54.9998 742.005L47.2498 737.155M54.9998 742.005L66.7698 735.135" stroke="#7DC877" stroke-width="12" stroke-linecap="round" stroke-linejoin="round"/>
<path d="M66.12 734.406L60.07 730.346C59.7515 730.129 59.3773 730.009 58.9924 730.001C58.6074 729.992 58.2281 730.094 57.9 730.296L47.95 736.416C47.6599 736.594 47.4204 736.845 47.2541 737.142C47.0878 737.44 47.0004 737.775 47 738.116V743.936C46.9995 744.263 47.0795 744.586 47.2329 744.875C47.3864 745.165 47.6086 745.412 47.88 745.596L53.93 749.666C54.2485 749.882 54.6227 750.002 55.0076 750.011C55.3926 750.019 55.7719 749.917 56.1 749.716L66.05 743.596C66.3401 743.417 66.5796 743.166 66.7459 742.869C66.9122 742.571 66.9996 742.236 67 741.896V736.066C67.0005 735.738 66.9205 735.415 66.7671 735.126C66.6136 734.836 66.3914 734.589 66.12 734.406Z" stroke="#24292E" stroke-width="4" stroke-linecap="round" stroke-linejoin="round"/>
<path d="M54.9998 750.005V742.005M54.9998 742.005L47.2498 737.155M54.9998 742.005L66.7698 735.135" stroke="#24292E" stroke-width="4" stroke-linecap="round" stroke-linejoin="round"/>
<path d="M53.4865 186.475V172.382H55.8419V174.409H56.3824L55.8419 174.969C55.8419 174.106 56.0993 173.431 56.6141 172.942C57.1289 172.44 57.8239 172.189 58.6991 172.189C59.7674 172.189 60.6233 172.556 61.2668 173.289C61.9103 174.023 62.2321 175.007 62.2321 176.243V179.12C62.2321 179.943 62.0841 180.664 61.788 181.282C61.5049 181.887 61.0995 182.356 60.5718 182.691C60.0441 183.026 59.4199 183.193 58.6991 183.193C57.8239 183.193 57.1289 182.949 56.6141 182.459C56.0993 181.957 55.8419 181.275 55.8419 180.413L56.3824 180.973H55.8225L55.8998 183.502V186.475H53.4865ZM57.8497 181.108C58.4674 181.108 58.9501 180.928 59.2976 180.567C59.6451 180.207 59.8189 179.692 59.8189 179.023V176.359C59.8189 175.69 59.6451 175.175 59.2976 174.814C58.9501 174.454 58.4674 174.274 57.8497 174.274C57.2447 174.274 56.7685 174.46 56.421 174.834C56.0735 175.194 55.8998 175.702 55.8998 176.359V179.023C55.8998 179.679 56.0735 180.194 56.421 180.567C56.7685 180.928 57.2447 181.108 57.8497 181.108ZM65.3907 183V172.382H67.6688V174.409H68.2673L67.5529 175.644C67.5529 174.499 67.8103 173.637 68.3252 173.058C68.84 172.478 69.5994 172.189 70.6033 172.189C71.7487 172.189 72.6497 172.543 73.3061 173.251C73.9625 173.958 74.2907 174.937 74.2907 176.185V176.957H71.7616V176.359C71.7616 175.677 71.5814 175.149 71.221 174.776C70.8735 174.402 70.3909 174.216 69.7731 174.216C69.1424 174.216 68.6534 174.402 68.3059 174.776C67.9712 175.149 67.8039 175.677 67.8039 176.359V183H65.3907ZM80.9436 183.174C80.0427 183.174 79.2576 183.006 78.5883 182.672C77.9319 182.324 77.4171 181.842 77.0439 181.224C76.6835 180.593 76.5033 179.853 76.5033 179.004V176.378C76.5033 175.529 76.6835 174.795 77.0439 174.177C77.4171 173.547 77.9319 173.064 78.5883 172.729C79.2576 172.382 80.0427 172.208 80.9436 172.208C81.8574 172.208 82.6425 172.382 83.2989 172.729C83.9553 173.064 84.4637 173.547 84.8241 174.177C85.1973 174.795 85.384 175.522 85.384 176.359V179.004C85.384 179.853 85.1973 180.593 84.8241 181.224C84.4637 181.842 83.9553 182.324 83.2989 182.672C82.6425 183.006 81.8574 183.174 80.9436 183.174ZM80.9436 181.069C81.5872 181.069 82.0827 180.896 82.4302 180.548C82.7905 180.188 82.9707 179.673 82.9707 179.004V176.378C82.9707 175.696 82.7905 175.181 82.4302 174.834C82.0827 174.486 81.5872 174.312 80.9436 174.312C80.313 174.312 79.8175 174.486 79.4571 174.834C79.0967 175.181 78.9165 175.696 78.9165 176.378V179.004C78.9165 179.673 79.0967 180.188 79.4571 180.548C79.8175 180.896 80.313 181.069 80.9436 181.069ZM88.2144 186.475V172.382H90.5697V174.409H91.1102L90.5697 174.969C90.5697 174.106 90.8271 173.431 91.3419 172.942C91.8567 172.44 92.5517 172.189 93.4269 172.189C94.4952 172.189 95.3511 172.556 95.9946 173.289C96.6381 174.023 96.9599 175.007 96.9599 176.243V179.12C96.9599 179.943 96.8119 180.664 96.5159 181.282C96.2327 181.887 95.8273 182.356 95.2996 182.691C94.7719 183.026 94.1477 183.193 93.4269 183.193C92.5517 183.193 91.8567 182.949 91.3419 182.459C90.8271 181.957 90.5697 181.275 90.5697 180.413L91.1102 180.973H90.5504L90.6276 183.502V186.475H88.2144ZM92.5775 181.108C93.1953 181.108 93.6779 180.928 94.0254 180.567C94.3729 180.207 94.5467 179.692 94.5467 179.023V176.359C94.5467 175.69 94.3729 175.175 94.0254 174.814C93.6779 174.454 93.1953 174.274 92.5775 174.274C91.9726 174.274 91.4964 174.46 91.1489 174.834C90.8014 175.194 90.6276 175.702 90.6276 176.359V179.023C90.6276 179.679 90.8014 180.194 91.1489 180.567C91.4964 180.928 91.9726 181.108 92.5775 181.108ZM104.115 183.193C103.214 183.193 102.429 183.019 101.76 182.672C101.09 182.324 100.569 181.842 100.196 181.224C99.8354 180.593 99.6552 179.86 99.6552 179.023V176.359C99.6552 175.522 99.8354 174.795 100.196 174.177C100.569 173.547 101.09 173.058 101.76 172.71C102.429 172.363 103.214 172.189 104.115 172.189C105.003 172.189 105.775 172.363 106.432 172.71C107.101 173.058 107.616 173.547 107.976 174.177C108.349 174.795 108.536 175.522 108.536 176.359V178.27H101.991V179.023C101.991 179.769 102.171 180.336 102.532 180.722C102.892 181.095 103.426 181.282 104.134 181.282C104.675 181.282 105.112 181.192 105.447 181.012C105.782 180.818 105.994 180.542 106.084 180.181H108.459C108.278 181.095 107.789 181.829 106.991 182.382C106.206 182.923 105.247 183.193 104.115 183.193ZM106.2 176.919V176.339C106.2 175.606 106.026 175.046 105.679 174.66C105.331 174.261 104.81 174.061 104.115 174.061C103.42 174.061 102.892 174.261 102.532 174.66C102.171 175.059 101.991 175.625 101.991 176.359V176.764L106.374 176.726L106.2 176.919ZM111.694 183V172.382H113.973V174.409H114.571L113.857 175.644C113.857 174.499 114.114 173.637 114.629 173.058C115.144 172.478 115.903 172.189 116.907 172.189C118.053 172.189 118.953 172.543 119.61 173.251C120.266 173.958 120.594 174.937 120.594 176.185V176.957H118.065V176.359C118.065 175.677 117.885 175.149 117.525 174.776C117.177 174.402 116.695 174.216 116.077 174.216C115.446 174.216 114.957 174.402 114.61 174.776C114.275 175.149 114.108 175.677 114.108 176.359V183H111.694ZM128.406 183C127.389 183 126.591 182.717 126.012 182.151C125.446 181.584 125.162 180.806 125.162 179.815V174.563H122.286V172.382H125.162V169.389H127.595V172.382H131.668V174.563H127.595V179.815C127.595 180.484 127.923 180.818 128.579 180.818H131.475V183H128.406ZM134.499 183V180.799H138.206V174.563H134.981V172.382H140.522V180.799H143.804V183H134.499ZM139.171 170.606C138.682 170.606 138.296 170.483 138.012 170.239C137.729 169.981 137.588 169.64 137.588 169.216C137.588 168.791 137.729 168.456 138.012 168.212C138.296 167.954 138.682 167.826 139.171 167.826C139.66 167.826 140.046 167.954 140.329 168.212C140.612 168.456 140.754 168.791 140.754 169.216C140.754 169.64 140.612 169.981 140.329 170.239C140.046 170.483 139.66 170.606 139.171 170.606ZM150.419 183.193C149.518 183.193 148.733 183.019 148.063 182.672C147.394 182.324 146.873 181.842 146.5 181.224C146.139 180.593 145.959 179.86 145.959 179.023V176.359C145.959 175.522 146.139 174.795 146.5 174.177C146.873 173.547 147.394 173.058 148.063 172.71C148.733 172.363 149.518 172.189 150.419 172.189C151.307 172.189 152.079 172.363 152.735 172.71C153.405 173.058 153.919 173.547 154.28 174.177C154.653 174.795 154.84 175.522 154.84 176.359V178.27H148.295V179.023C148.295 179.769 148.475 180.336 148.836 180.722C149.196 181.095 149.73 181.282 150.438 181.282C150.978 181.282 151.416 181.192 151.751 181.012C152.085 180.818 152.298 180.542 152.388 180.181H154.762C154.582 181.095 154.093 181.829 153.295 182.382C152.51 182.923 151.551 183.193 150.419 183.193ZM152.504 176.919V176.339C152.504 175.606 152.33 175.046 151.982 174.66C151.635 174.261 151.114 174.061 150.419 174.061C149.724 174.061 149.196 174.261 148.836 174.66C148.475 175.059 148.295 175.625 148.295 176.359V176.764L152.677 176.726L152.504 176.919ZM161.57 183.174C160.759 183.174 160.051 183.045 159.446 182.788C158.841 182.53 158.365 182.176 158.018 181.726C157.683 181.262 157.503 180.722 157.477 180.104H159.89C159.916 180.439 160.077 180.709 160.373 180.915C160.682 181.121 161.081 181.224 161.57 181.224H162.419C163.011 181.224 163.455 181.108 163.751 180.876C164.047 180.645 164.195 180.329 164.195 179.93C164.195 179.557 164.06 179.268 163.79 179.062C163.533 178.843 163.127 178.701 162.574 178.637L161.261 178.444C160.051 178.277 159.163 177.955 158.597 177.479C158.03 177.002 157.747 176.288 157.747 175.336C157.747 174.345 158.082 173.579 158.751 173.038C159.42 172.485 160.405 172.208 161.705 172.208H162.439C163.623 172.208 164.569 172.472 165.277 173C165.984 173.527 166.364 174.235 166.416 175.123H164.002C163.964 174.84 163.803 174.608 163.52 174.428C163.249 174.248 162.889 174.158 162.439 174.158H161.705C161.152 174.158 160.746 174.261 160.489 174.467C160.244 174.66 160.122 174.949 160.122 175.336C160.122 175.696 160.231 175.966 160.45 176.146C160.669 176.314 161.023 176.436 161.512 176.513L162.883 176.706C164.144 176.886 165.071 177.228 165.663 177.73C166.268 178.219 166.57 178.946 166.57 179.911C166.57 180.941 166.216 181.745 165.508 182.324C164.813 182.891 163.784 183.174 162.419 183.174H161.57ZM182.038 177.749V175.509H188.216V177.749H182.038Z" fill="#939393"/>
<path d="M203.974 186.475V172.382H206.329V174.409H206.87L206.329 174.969C206.329 174.106 206.587 173.431 207.101 172.942C207.616 172.44 208.311 172.189 209.186 172.189C210.255 172.189 211.111 172.556 211.754 173.289C212.398 174.023 212.719 175.007 212.719 176.243V179.12C212.719 179.943 212.571 180.664 212.275 181.282C211.992 181.887 211.587 182.356 211.059 182.691C210.531 183.026 209.907 183.193 209.186 183.193C208.311 183.193 207.616 182.949 207.101 182.459C206.587 181.957 206.329 181.275 206.329 180.413L206.87 180.973H206.31L206.387 183.502V186.475H203.974ZM208.337 181.108C208.955 181.108 209.437 180.928 209.785 180.567C210.132 180.207 210.306 179.692 210.306 179.023V176.359C210.306 175.69 210.132 175.175 209.785 174.814C209.437 174.454 208.955 174.274 208.337 174.274C207.732 174.274 207.256 174.46 206.908 174.834C206.561 175.194 206.387 175.702 206.387 176.359V179.023C206.387 179.679 206.561 180.194 206.908 180.567C207.256 180.928 207.732 181.108 208.337 181.108ZM215.878 183V172.382H218.156V174.409H218.754L218.04 175.644C218.04 174.499 218.298 173.637 218.812 173.058C219.327 172.478 220.087 172.189 221.091 172.189C222.236 172.189 223.137 172.543 223.793 173.251C224.45 173.958 224.778 174.937 224.778 176.185V176.957H222.249V176.359C222.249 175.677 222.069 175.149 221.708 174.776C221.361 174.402 220.878 174.216 220.26 174.216C219.63 174.216 219.141 174.402 218.793 174.776C218.458 175.149 218.291 175.677 218.291 176.359V183H215.878ZM227.106 183V180.799H230.813V174.563H227.589V172.382H233.13V180.799H236.412V183H227.106ZM231.778 170.606C231.289 170.606 230.903 170.483 230.62 170.239C230.337 169.981 230.195 169.64 230.195 169.216C230.195 168.791 230.337 168.456 230.62 168.212C230.903 167.954 231.289 167.826 231.778 167.826C232.267 167.826 232.654 167.954 232.937 168.212C233.22 168.456 233.361 168.791 233.361 169.216C233.361 169.64 233.22 169.981 232.937 170.239C232.654 170.483 232.267 170.606 231.778 170.606ZM241.462 183L237.968 172.382H240.439L242.466 178.83C242.582 179.216 242.691 179.615 242.794 180.027C242.91 180.439 242.994 180.767 243.045 181.012C243.11 180.767 243.193 180.439 243.296 180.027C243.399 179.615 243.502 179.222 243.605 178.849L245.594 172.382H248.046L244.571 183H241.462ZM253.405 183.193C252.311 183.193 251.449 182.903 250.818 182.324C250.187 181.745 249.872 180.966 249.872 179.988C249.872 178.946 250.22 178.141 250.915 177.575C251.61 177.009 252.594 176.726 253.868 176.726H256.513V175.818C256.513 175.303 256.346 174.904 256.011 174.621C255.677 174.325 255.22 174.177 254.641 174.177C254.113 174.177 253.675 174.293 253.328 174.525C252.98 174.756 252.774 175.072 252.71 175.471H250.355C250.471 174.467 250.921 173.669 251.706 173.077C252.491 172.485 253.495 172.189 254.718 172.189C256.018 172.189 257.041 172.517 257.788 173.173C258.547 173.817 258.927 174.692 258.927 175.799V183H256.591V181.147H256.204L256.591 180.625C256.591 181.41 256.301 182.035 255.722 182.498C255.143 182.961 254.37 183.193 253.405 183.193ZM254.197 181.378C254.879 181.378 255.432 181.205 255.857 180.857C256.295 180.51 256.513 180.059 256.513 179.506V178.212H253.907C253.418 178.212 253.025 178.354 252.729 178.637C252.433 178.92 252.285 179.293 252.285 179.757C252.285 180.259 252.453 180.658 252.787 180.954C253.135 181.237 253.605 181.378 254.197 181.378ZM267.317 183C266.3 183 265.502 182.717 264.923 182.151C264.357 181.584 264.074 180.806 264.074 179.815V174.563H261.197V172.382H264.074V169.389H266.506V172.382H270.58V174.563H266.506V179.815C266.506 180.484 266.834 180.818 267.491 180.818H270.387V183H267.317ZM277.754 183.193C276.853 183.193 276.068 183.019 275.399 182.672C274.729 182.324 274.208 181.842 273.835 181.224C273.474 180.593 273.294 179.86 273.294 179.023V176.359C273.294 175.522 273.474 174.795 273.835 174.177C274.208 173.547 274.729 173.058 275.399 172.71C276.068 172.363 276.853 172.189 277.754 172.189C278.642 172.189 279.414 172.363 280.071 172.71C280.74 173.058 281.255 173.547 281.615 174.177C281.988 174.795 282.175 175.522 282.175 176.359V178.27H275.63V179.023C275.63 179.769 275.81 180.336 276.171 180.722C276.531 181.095 277.065 181.282 277.773 181.282C278.314 181.282 278.751 181.192 279.086 181.012C279.421 180.818 279.633 180.542 279.723 180.181H282.098C281.918 181.095 281.428 181.829 280.631 182.382C279.845 182.923 278.887 183.193 277.754 183.193ZM279.839 176.919V176.339C279.839 175.606 279.665 175.046 279.318 174.66C278.97 174.261 278.449 174.061 277.754 174.061C277.059 174.061 276.531 174.261 276.171 174.66C275.81 175.059 275.63 175.625 275.63 176.359V176.764L280.013 176.726L279.839 176.919Z" fill="#B55353"/>
<path d="M308.157 186.475V172.382H310.513V174.409H311.053L310.513 174.969C310.513 174.106 310.77 173.431 311.285 172.942C311.8 172.44 312.495 172.189 313.37 172.189C314.438 172.189 315.294 172.556 315.938 173.289C316.581 174.023 316.903 175.007 316.903 176.243V179.12C316.903 179.943 316.755 180.664 316.459 181.282C316.176 181.887 315.77 182.356 315.243 182.691C314.715 183.026 314.091 183.193 313.37 183.193C312.495 183.193 311.8 182.949 311.285 182.459C310.77 181.957 310.513 181.275 310.513 180.413L311.053 180.973H310.493L310.571 183.502V186.475H308.157ZM312.52 181.108C313.138 181.108 313.621 180.928 313.968 180.567C314.316 180.207 314.49 179.692 314.49 179.023V176.359C314.49 175.69 314.316 175.175 313.968 174.814C313.621 174.454 313.138 174.274 312.52 174.274C311.915 174.274 311.439 174.46 311.092 174.834C310.744 175.194 310.571 175.702 310.571 176.359V179.023C310.571 179.679 310.744 180.194 311.092 180.567C311.439 180.928 311.915 181.108 312.52 181.108ZM324.038 183.193C322.687 183.193 321.625 182.82 320.853 182.073C320.081 181.314 319.695 180.284 319.695 178.984V172.382H322.108V178.965C322.108 179.647 322.275 180.175 322.61 180.548C322.944 180.909 323.421 181.089 324.038 181.089C324.643 181.089 325.113 180.909 325.448 180.548C325.795 180.175 325.969 179.647 325.969 178.965V172.382H328.382V178.984C328.382 180.284 327.99 181.314 327.205 182.073C326.419 182.82 325.364 183.193 324.038 183.193ZM336.522 183.193C335.647 183.193 334.952 182.949 334.437 182.459C333.922 181.957 333.664 181.275 333.664 180.413L334.205 180.973H333.664V183H331.309V168.907H333.722V171.88L333.645 174.409H334.205L333.664 174.969C333.664 174.106 333.922 173.431 334.437 172.942C334.952 172.44 335.647 172.189 336.522 172.189C337.59 172.189 338.446 172.556 339.089 173.289C339.733 174.023 340.055 175.014 340.055 176.262V179.139C340.055 180.374 339.733 181.359 339.089 182.093C338.446 182.826 337.59 183.193 336.522 183.193ZM335.672 181.108C336.29 181.108 336.773 180.928 337.12 180.567C337.468 180.207 337.641 179.692 337.641 179.023V176.359C337.641 175.69 337.468 175.175 337.12 174.814C336.773 174.454 336.29 174.274 335.672 174.274C335.067 174.274 334.591 174.46 334.244 174.834C333.896 175.194 333.722 175.702 333.722 176.359V179.023C333.722 179.679 333.896 180.194 334.244 180.567C334.591 180.928 335.067 181.108 335.672 181.108ZM348.812 183C348.117 183 347.506 182.858 346.978 182.575C346.463 182.292 346.058 181.893 345.762 181.378C345.466 180.851 345.318 180.246 345.318 179.564V171.088H341.92V168.907H347.731V179.564C347.731 179.95 347.84 180.259 348.059 180.49C348.291 180.709 348.6 180.818 348.986 180.818H352.191V183H348.812ZM354.442 183V180.799H358.148V174.563H354.924V172.382H360.465V180.799H363.747V183H354.442ZM359.114 170.606C358.625 170.606 358.239 170.483 357.955 170.239C357.672 169.981 357.531 169.64 357.531 169.216C357.531 168.791 357.672 168.456 357.955 168.212C358.239 167.954 358.625 167.826 359.114 167.826C359.603 167.826 359.989 167.954 360.272 168.212C360.555 168.456 360.697 168.791 360.697 169.216C360.697 169.64 360.555 169.981 360.272 170.239C359.989 170.483 359.603 170.606 359.114 170.606ZM370.4 183.193C369.499 183.193 368.708 183.026 368.025 182.691C367.356 182.344 366.835 181.861 366.462 181.243C366.088 180.613 365.902 179.872 365.902 179.023V176.359C365.902 175.496 366.088 174.756 366.462 174.139C366.835 173.521 367.356 173.045 368.025 172.71C368.708 172.363 369.499 172.189 370.4 172.189C371.739 172.189 372.807 172.536 373.605 173.231C374.403 173.913 374.821 174.847 374.86 176.031H372.447C372.408 175.477 372.208 175.052 371.848 174.756C371.501 174.448 371.018 174.293 370.4 174.293C369.757 174.293 369.248 174.473 368.875 174.834C368.502 175.181 368.315 175.683 368.315 176.339V179.023C368.315 179.679 368.502 180.188 368.875 180.548C369.248 180.909 369.757 181.089 370.4 181.089C371.018 181.089 371.501 180.941 371.848 180.645C372.208 180.336 372.408 179.905 372.447 179.351H374.86C374.821 180.535 374.403 181.475 373.605 182.17C372.807 182.852 371.739 183.193 370.4 183.193Z" fill="#7DC877"/>
<path d="M47 242L63 226M63 226V242M63 226H47" stroke="#B55353" stroke-width="12" stroke-linecap="round" stroke-linejoin="round"/>
<path d="M47 242L63 226M63 226V242M63 226H47" stroke="#24292E" stroke-width="4" stroke-linecap="round" stroke-linejoin="round"/>
<path d="M119.682 242.32C118.191 242.32 116.881 242.043 115.752 241.489C114.644 240.914 113.781 240.115 113.163 239.092C112.546 238.048 112.237 236.823 112.237 235.417V231.008C112.237 229.58 112.546 228.355 113.163 227.333C113.781 226.31 114.644 225.522 115.752 224.968C116.881 224.393 118.191 224.106 119.682 224.106C121.898 224.106 123.666 224.681 124.987 225.831C126.307 226.96 127 228.505 127.064 230.464H123.069C123.005 229.548 122.675 228.845 122.079 228.355C121.504 227.844 120.705 227.589 119.682 227.589C118.617 227.589 117.776 227.887 117.158 228.483C116.54 229.058 116.231 229.889 116.231 230.976V235.417C116.231 236.504 116.54 237.345 117.158 237.942C117.776 238.538 118.617 238.837 119.682 238.837C120.705 238.837 121.504 238.592 122.079 238.102C122.675 237.59 123.005 236.877 123.069 235.961H127.064C127 237.92 126.307 239.476 124.987 240.626C123.666 241.755 121.898 242.32 119.682 242.32ZM138.747 242.32C136.51 242.32 134.752 241.702 133.474 240.466C132.196 239.209 131.557 237.505 131.557 235.353V224.425H135.551V235.322C135.551 236.451 135.828 237.324 136.382 237.942C136.936 238.538 137.724 238.837 138.747 238.837C139.748 238.837 140.525 238.538 141.079 237.942C141.654 237.324 141.942 236.451 141.942 235.322V224.425H145.936V235.353C145.936 237.505 145.287 239.209 143.987 240.466C142.688 241.702 140.941 242.32 138.747 242.32ZM151.324 242V224.425H155.095V227.78H156.085L154.903 229.825C154.903 227.929 155.329 226.502 156.181 225.543C157.033 224.585 158.29 224.106 159.952 224.106C161.848 224.106 163.339 224.691 164.425 225.863C165.512 227.035 166.055 228.654 166.055 230.72V231.998H161.869V231.008C161.869 229.879 161.571 229.005 160.974 228.387C160.399 227.77 159.6 227.461 158.578 227.461C157.534 227.461 156.724 227.77 156.149 228.387C155.595 229.005 155.318 229.879 155.318 231.008V242H151.324ZM170.484 242V224.425H174.255V227.78H175.245L174.063 229.825C174.063 227.929 174.489 226.502 175.341 225.543C176.193 224.585 177.45 224.106 179.112 224.106C181.008 224.106 182.499 224.691 183.586 225.863C184.672 227.035 185.215 228.654 185.215 230.72V231.998H181.029V231.008C181.029 229.879 180.731 229.005 180.134 228.387C179.559 227.77 178.76 227.461 177.738 227.461C176.694 227.461 175.885 227.77 175.309 228.387C174.755 229.005 174.479 229.879 174.479 231.008V242H170.484ZM196.259 242.32C194.768 242.32 193.468 242.032 192.361 241.457C191.253 240.882 190.39 240.083 189.772 239.06C189.176 238.016 188.878 236.802 188.878 235.417V231.008C188.878 229.623 189.176 228.419 189.772 227.397C190.39 226.353 191.253 225.543 192.361 224.968C193.468 224.393 194.768 224.106 196.259 224.106C197.729 224.106 199.007 224.393 200.094 224.968C201.201 225.543 202.053 226.353 202.65 227.397C203.268 228.419 203.577 229.623 203.577 231.008V234.171H192.744V235.417C192.744 236.653 193.042 237.59 193.639 238.229C194.235 238.847 195.119 239.156 196.291 239.156C197.186 239.156 197.91 239.007 198.464 238.709C199.018 238.389 199.369 237.931 199.518 237.335H203.449C203.151 238.847 202.341 240.061 201.02 240.977C199.721 241.872 198.134 242.32 196.259 242.32ZM199.71 231.934V230.976C199.71 229.761 199.422 228.835 198.847 228.196C198.272 227.535 197.409 227.205 196.259 227.205C195.109 227.205 194.235 227.535 193.639 228.196C193.042 228.856 192.744 229.793 192.744 231.008V231.679L199.998 231.615L199.71 231.934ZM208.261 242V224.425H212.16V227.78H213.246L212.16 228.707C212.16 227.258 212.575 226.129 213.406 225.32C214.258 224.51 215.419 224.106 216.889 224.106C218.615 224.106 219.989 224.681 221.011 225.831C222.055 226.981 222.577 228.526 222.577 230.464V242H218.583V230.88C218.583 229.815 218.306 228.995 217.752 228.419C217.198 227.844 216.42 227.557 215.419 227.557C214.439 227.557 213.662 227.855 213.087 228.451C212.533 229.048 212.256 229.9 212.256 231.008V242H208.261ZM236.465 242C234.782 242 233.461 241.531 232.502 240.594C231.565 239.657 231.096 238.368 231.096 236.728V228.036H226.335V224.425H231.096V219.472H235.123V224.425H241.865V228.036H235.123V236.728C235.123 237.835 235.666 238.389 236.752 238.389H241.545V242H236.465ZM251.119 242L245.24 218.673H249.394L252.909 233.884C253.1 234.629 253.282 235.428 253.452 236.28C253.622 237.132 253.75 237.825 253.835 238.357C253.921 237.825 254.038 237.132 254.187 236.28C254.336 235.428 254.496 234.619 254.666 233.852L258.149 218.673H262.176L256.296 242H251.119ZM272.9 242.32C271.409 242.32 270.109 242.032 269.001 241.457C267.894 240.882 267.031 240.083 266.413 239.06C265.816 238.016 265.518 236.802 265.518 235.417V231.008C265.518 229.623 265.816 228.419 266.413 227.397C267.031 226.353 267.894 225.543 269.001 224.968C270.109 224.393 271.409 224.106 272.9 224.106C274.37 224.106 275.648 224.393 276.734 224.968C277.842 225.543 278.694 226.353 279.291 227.397C279.908 228.419 280.217 229.623 280.217 231.008V234.171H269.385V235.417C269.385 236.653 269.683 237.59 270.279 238.229C270.876 238.847 271.76 239.156 272.932 239.156C273.826 239.156 274.551 239.007 275.105 238.709C275.658 238.389 276.01 237.931 276.159 237.335H280.089C279.791 238.847 278.982 240.061 277.661 240.977C276.361 241.872 274.774 242.32 272.9 242.32ZM276.351 231.934V230.976C276.351 229.761 276.063 228.835 275.488 228.196C274.913 227.535 274.05 227.205 272.9 227.205C271.749 227.205 270.876 227.535 270.279 228.196C269.683 228.856 269.385 229.793 269.385 231.008V231.679L276.638 231.615L276.351 231.934ZM294.712 242C293.562 242 292.55 241.766 291.676 241.297C290.824 240.828 290.153 240.168 289.663 239.316C289.173 238.442 288.928 237.441 288.928 236.312V222.284H283.304V218.673H292.923V236.312C292.923 236.951 293.104 237.462 293.466 237.846C293.849 238.208 294.361 238.389 295 238.389H300.304V242H294.712ZM311.188 242.288C309.697 242.288 308.397 242.011 307.29 241.457C306.203 240.882 305.351 240.083 304.733 239.06C304.137 238.016 303.839 236.791 303.839 235.385V231.04C303.839 229.634 304.137 228.419 304.733 227.397C305.351 226.353 306.203 225.554 307.29 225C308.397 224.425 309.697 224.137 311.188 224.137C312.701 224.137 314 224.425 315.087 225C316.173 225.554 317.014 226.353 317.611 227.397C318.229 228.419 318.538 229.623 318.538 231.008V235.385C318.538 236.791 318.229 238.016 317.611 239.06C317.014 240.083 316.173 240.882 315.087 241.457C314 242.011 312.701 242.288 311.188 242.288ZM311.188 238.805C312.253 238.805 313.073 238.517 313.649 237.942C314.245 237.345 314.543 236.493 314.543 235.385V231.04C314.543 229.911 314.245 229.058 313.649 228.483C313.073 227.908 312.253 227.621 311.188 227.621C310.144 227.621 309.324 227.908 308.728 228.483C308.131 229.058 307.833 229.911 307.833 231.04V235.385C307.833 236.493 308.131 237.345 308.728 237.942C309.324 238.517 310.144 238.805 311.188 238.805ZM330.444 242.32C328.953 242.32 327.643 242.043 326.514 241.489C325.406 240.914 324.543 240.115 323.925 239.092C323.308 238.048 322.999 236.823 322.999 235.417V231.008C322.999 229.58 323.308 228.355 323.925 227.333C324.543 226.31 325.406 225.522 326.514 224.968C327.643 224.393 328.953 224.106 330.444 224.106C332.66 224.106 334.428 224.681 335.749 225.831C337.069 226.96 337.762 228.505 337.826 230.464H333.831C333.767 229.548 333.437 228.845 332.841 228.355C332.266 227.844 331.467 227.589 330.444 227.589C329.379 227.589 328.538 227.887 327.92 228.483C327.302 229.058 326.993 229.889 326.993 230.976V235.417C326.993 236.504 327.302 237.345 327.92 237.942C328.538 238.538 329.379 238.837 330.444 238.837C331.467 238.837 332.266 238.592 332.841 238.102C333.437 237.59 333.767 236.877 333.831 235.961H337.826C337.762 237.92 337.069 239.476 335.749 240.626C334.428 241.755 332.66 242.32 330.444 242.32ZM342.351 242V238.357H348.486V228.036H343.15V224.425H352.32V238.357H357.753V242H342.351ZM350.084 221.485C349.274 221.485 348.635 221.283 348.166 220.878C347.698 220.452 347.463 219.888 347.463 219.185C347.463 218.482 347.698 217.928 348.166 217.523C348.635 217.097 349.274 216.884 350.084 216.884C350.893 216.884 351.532 217.097 352.001 217.523C352.47 217.928 352.704 218.482 352.704 219.185C352.704 219.888 352.47 220.452 352.001 220.878C351.532 221.283 350.893 221.485 350.084 221.485ZM370.586 242C368.903 242 367.582 241.531 366.624 240.594C365.686 239.657 365.218 238.368 365.218 236.728V228.036H360.456V224.425H365.218V219.472H369.244V224.425H375.986V228.036H369.244V236.728C369.244 237.835 369.787 238.389 370.874 238.389H375.667V242H370.586ZM383.547 247.752L386.007 241.041L379.457 224.425H383.835L387.094 233.404C387.264 233.894 387.435 234.491 387.605 235.194C387.776 235.875 387.903 236.44 387.989 236.887C388.095 236.44 388.234 235.875 388.404 235.194C388.574 234.491 388.745 233.894 388.915 233.404L391.983 224.425H396.201L387.733 247.752H383.547Z" fill="#939393"/>
<path d="M114.857 309.752V306.429H120.066C120.96 306.429 121.631 306.205 122.079 305.757C122.526 305.331 122.75 304.714 122.75 303.904V302.594L122.814 299.303H121.951L122.814 298.44C122.814 299.867 122.388 300.986 121.536 301.795C120.705 302.583 119.576 302.977 118.148 302.977C116.359 302.977 114.932 302.37 113.866 301.156C112.823 299.942 112.301 298.301 112.301 296.235V292.816C112.301 290.771 112.823 289.141 113.866 287.927C114.932 286.713 116.359 286.106 118.148 286.106C119.576 286.106 120.705 286.51 121.536 287.32C122.388 288.108 122.814 289.216 122.814 290.643L121.951 289.78H122.814L122.718 286.425H126.712V304C126.712 305.768 126.126 307.163 124.955 308.186C123.783 309.23 122.175 309.752 120.13 309.752H114.857ZM119.49 299.526C120.513 299.526 121.301 299.228 121.855 298.632C122.43 298.014 122.718 297.162 122.718 296.075V293.008C122.718 291.921 122.43 291.08 121.855 290.483C121.301 289.865 120.513 289.557 119.49 289.557C118.468 289.557 117.68 289.855 117.126 290.451C116.572 291.048 116.295 291.9 116.295 293.008V296.075C116.295 297.183 116.572 298.035 117.126 298.632C117.68 299.228 118.468 299.526 119.49 299.526ZM132.164 304V286.425H135.935V289.78H136.925L135.743 291.825C135.743 289.929 136.169 288.502 137.021 287.543C137.873 286.585 139.13 286.106 140.792 286.106C142.688 286.106 144.179 286.691 145.265 287.863C146.352 289.035 146.895 290.654 146.895 292.72V293.998H142.709V293.008C142.709 291.879 142.411 291.005 141.814 290.387C141.239 289.77 140.44 289.461 139.418 289.461C138.374 289.461 137.564 289.77 136.989 290.387C136.435 291.005 136.158 291.879 136.158 293.008V304H132.164ZM155.957 304.32C154.147 304.32 152.719 303.84 151.676 302.882C150.632 301.923 150.11 300.634 150.11 299.015C150.11 297.29 150.685 295.958 151.835 295.021C152.986 294.083 154.615 293.615 156.724 293.615H161.102V292.113C161.102 291.261 160.825 290.6 160.271 290.132C159.717 289.642 158.961 289.397 158.003 289.397C157.129 289.397 156.405 289.589 155.83 289.972C155.254 290.355 154.914 290.877 154.807 291.538H150.909C151.1 289.876 151.846 288.555 153.145 287.575C154.445 286.595 156.107 286.106 158.13 286.106C160.282 286.106 161.976 286.649 163.211 287.735C164.468 288.8 165.096 290.249 165.096 292.081V304H161.23V300.932H160.591L161.23 300.07C161.23 301.369 160.751 302.402 159.792 303.169C158.833 303.936 157.555 304.32 155.957 304.32ZM157.268 301.316C158.397 301.316 159.313 301.028 160.016 300.453C160.74 299.878 161.102 299.132 161.102 298.216V296.075H156.788C155.979 296.075 155.329 296.31 154.839 296.778C154.349 297.247 154.104 297.865 154.104 298.632C154.104 299.462 154.381 300.123 154.935 300.613C155.51 301.081 156.288 301.316 157.268 301.316ZM174.511 304L168.727 286.425H172.817L176.172 297.098C176.364 297.737 176.545 298.397 176.715 299.079C176.907 299.761 177.046 300.304 177.131 300.709C177.237 300.304 177.376 299.761 177.546 299.079C177.717 298.397 177.887 297.748 178.057 297.13L181.349 286.425H185.407L179.655 304H174.511ZM189.069 304V300.357H195.205V290.036H189.868V286.425H199.039V300.357H204.471V304H189.069ZM196.802 283.485C195.993 283.485 195.354 283.283 194.885 282.878C194.416 282.452 194.182 281.888 194.182 281.185C194.182 280.482 194.416 279.928 194.885 279.523C195.354 279.097 195.993 278.884 196.802 278.884C197.612 278.884 198.251 279.097 198.719 279.523C199.188 279.928 199.422 280.482 199.422 281.185C199.422 281.888 199.188 282.452 198.719 282.878C198.251 283.283 197.612 283.485 196.802 283.485ZM217.304 304C215.622 304 214.301 303.531 213.342 302.594C212.405 301.657 211.936 300.368 211.936 298.728V290.036H207.175V286.425H211.936V281.472H215.962V286.425H222.705V290.036H215.962V298.728C215.962 299.835 216.506 300.389 217.592 300.389H222.385V304H217.304ZM230.266 309.752L232.726 303.041L226.175 286.425H230.553L233.812 295.404C233.983 295.894 234.153 296.491 234.324 297.194C234.494 297.875 234.622 298.44 234.707 298.887C234.814 298.44 234.952 297.875 235.123 297.194C235.293 296.491 235.463 295.894 235.634 295.404L238.701 286.425H242.919L234.452 309.752H230.266ZM246.518 304V280.673H253.452C255.028 280.673 256.392 280.972 257.542 281.568C258.714 282.164 259.619 283.006 260.258 284.092C260.897 285.179 261.217 286.468 261.217 287.959V296.682C261.217 298.152 260.897 299.441 260.258 300.549C259.619 301.635 258.714 302.487 257.542 303.105C256.392 303.702 255.028 304 253.452 304H246.518ZM250.512 300.325H253.452C254.602 300.325 255.518 300.006 256.2 299.367C256.882 298.706 257.223 297.811 257.223 296.682V287.959C257.223 286.851 256.882 285.978 256.2 285.339C255.518 284.678 254.602 284.348 253.452 284.348H250.512V300.325ZM265.71 304V300.357H271.845V290.036H266.509V286.425H275.68V300.357H281.112V304H265.71ZM273.443 283.485C272.633 283.485 271.994 283.283 271.526 282.878C271.057 282.452 270.823 281.888 270.823 281.185C270.823 280.482 271.057 279.928 271.526 279.523C271.994 279.097 272.633 278.884 273.443 278.884C274.252 278.884 274.892 279.097 275.36 279.523C275.829 279.928 276.063 280.482 276.063 281.185C276.063 281.888 275.829 282.452 275.36 282.878C274.892 283.283 274.252 283.485 273.443 283.485ZM285.445 304V286.425H289.216V289.78H290.207L289.024 291.825C289.024 289.929 289.45 288.502 290.302 287.543C291.155 286.585 292.411 286.106 294.073 286.106C295.969 286.106 297.46 286.691 298.547 287.863C299.633 289.035 300.176 290.654 300.176 292.72V293.998H295.99V293.008C295.99 291.879 295.692 291.005 295.096 290.387C294.52 289.77 293.722 289.461 292.699 289.461C291.655 289.461 290.846 289.77 290.27 290.387C289.717 291.005 289.44 291.879 289.44 293.008V304H285.445ZM311.22 304.32C309.729 304.32 308.429 304.032 307.322 303.457C306.214 302.882 305.351 302.083 304.733 301.06C304.137 300.016 303.839 298.802 303.839 297.417V293.008C303.839 291.623 304.137 290.419 304.733 289.397C305.351 288.353 306.214 287.543 307.322 286.968C308.429 286.393 309.729 286.106 311.22 286.106C312.69 286.106 313.968 286.393 315.055 286.968C316.162 287.543 317.014 288.353 317.611 289.397C318.229 290.419 318.538 291.623 318.538 293.008V296.171H307.705V297.417C307.705 298.653 308.003 299.59 308.6 300.229C309.196 300.847 310.08 301.156 311.252 301.156C312.147 301.156 312.871 301.007 313.425 300.709C313.979 300.389 314.33 299.931 314.479 299.335H318.41C318.112 300.847 317.302 302.061 315.981 302.977C314.682 303.872 313.095 304.32 311.22 304.32ZM314.671 293.934V292.976C314.671 291.761 314.384 290.835 313.808 290.196C313.233 289.535 312.37 289.205 311.22 289.205C310.07 289.205 309.196 289.535 308.6 290.196C308.003 290.856 307.705 291.793 307.705 293.008V293.679L314.959 293.615L314.671 293.934ZM330.444 304.32C328.953 304.32 327.643 304.043 326.514 303.489C325.406 302.914 324.543 302.115 323.925 301.092C323.308 300.048 322.999 298.823 322.999 297.417V293.008C322.999 291.58 323.308 290.355 323.925 289.333C324.543 288.31 325.406 287.522 326.514 286.968C327.643 286.393 328.953 286.106 330.444 286.106C332.66 286.106 334.428 286.681 335.749 287.831C337.069 288.96 337.762 290.505 337.826 292.464H333.831C333.767 291.548 333.437 290.845 332.841 290.355C332.266 289.844 331.467 289.589 330.444 289.589C329.379 289.589 328.538 289.887 327.92 290.483C327.302 291.058 326.993 291.889 326.993 292.976V297.417C326.993 298.504 327.302 299.345 327.92 299.942C328.538 300.538 329.379 300.837 330.444 300.837C331.467 300.837 332.266 300.592 332.841 300.102C333.437 299.59 333.767 298.877 333.831 297.961H337.826C337.762 299.92 337.069 301.476 335.749 302.626C334.428 303.755 332.66 304.32 330.444 304.32ZM351.426 304C349.743 304 348.422 303.531 347.463 302.594C346.526 301.657 346.057 300.368 346.057 298.728V290.036H341.296V286.425H346.057V281.472H350.084V286.425H356.826V290.036H350.084V298.728C350.084 299.835 350.627 300.389 351.713 300.389H356.507V304H351.426ZM361.511 304V300.357H367.646V290.036H362.31V286.425H371.481V300.357H376.913V304H361.511ZM369.244 283.485C368.434 283.485 367.795 283.283 367.327 282.878C366.858 282.452 366.624 281.888 366.624 281.185C366.624 280.482 366.858 279.928 367.327 279.523C367.795 279.097 368.434 278.884 369.244 278.884C370.053 278.884 370.692 279.097 371.161 279.523C371.63 279.928 371.864 280.482 371.864 281.185C371.864 281.888 371.63 282.452 371.161 282.878C370.692 283.283 370.053 283.485 369.244 283.485ZM387.829 304.288C386.338 304.288 385.038 304.011 383.93 303.457C382.844 302.882 381.992 302.083 381.374 301.06C380.778 300.016 380.479 298.791 380.479 297.385V293.04C380.479 291.634 380.778 290.419 381.374 289.397C381.992 288.353 382.844 287.554 383.93 287C385.038 286.425 386.338 286.137 387.829 286.137C389.341 286.137 390.641 286.425 391.727 287C392.814 287.554 393.655 288.353 394.252 289.397C394.869 290.419 395.178 291.623 395.178 293.008V297.385C395.178 298.791 394.869 300.016 394.252 301.06C393.655 302.083 392.814 302.882 391.727 303.457C390.641 304.011 389.341 304.288 387.829 304.288ZM387.829 300.805C388.894 300.805 389.714 300.517 390.289 299.942C390.886 299.345 391.184 298.493 391.184 297.385V293.04C391.184 291.911 390.886 291.058 390.289 290.483C389.714 289.908 388.894 289.621 387.829 289.621C386.785 289.621 385.965 289.908 385.368 290.483C384.772 291.058 384.474 291.911 384.474 293.04V297.385C384.474 298.493 384.772 299.345 385.368 299.942C385.965 300.517 386.785 300.805 387.829 300.805ZM399.863 304V286.425H403.762V289.78H404.848L403.762 290.707C403.762 289.258 404.177 288.129 405.008 287.32C405.86 286.51 407.021 286.106 408.491 286.106C410.216 286.106 411.59 286.681 412.613 287.831C413.657 288.981 414.179 290.526 414.179 292.464V304H410.184V292.88C410.184 291.815 409.908 290.995 409.354 290.419C408.8 289.844 408.022 289.557 407.021 289.557C406.041 289.557 405.263 289.855 404.688 290.451C404.134 291.048 403.857 291.9 403.857 293.008V304H399.863Z" fill="#939393"/>
<path d="M47 304L63 288M63 288V304M63 288H47" stroke="#B55353" stroke-width="12" stroke-linecap="round" stroke-linejoin="round"/>
<path d="M47 304L63 288M63 288V304M63 288H47" stroke="#24292E" stroke-width="4" stroke-linecap="round" stroke-linejoin="round"/>
<circle cx="55" cy="357" r="11.5" stroke="#7DC877" stroke-width="5"/>
<path d="M112.429 366V362.357H118.564V352.036H113.227V348.425H122.398V362.357H127.831V366H112.429ZM120.162 345.485C119.352 345.485 118.713 345.283 118.244 344.878C117.776 344.452 117.541 343.888 117.541 343.185C117.541 342.482 117.776 341.928 118.244 341.523C118.713 341.097 119.352 340.884 120.162 340.884C120.971 340.884 121.61 341.097 122.079 341.523C122.547 341.928 122.782 342.482 122.782 343.185C122.782 343.888 122.547 344.452 122.079 344.878C121.61 345.283 120.971 345.485 120.162 345.485ZM138.075 366.288C136.733 366.288 135.562 366.075 134.56 365.649C133.559 365.222 132.771 364.637 132.196 363.891C131.642 363.124 131.344 362.229 131.301 361.207H135.295C135.338 361.761 135.604 362.208 136.094 362.549C136.606 362.89 137.266 363.06 138.075 363.06H139.481C140.461 363.06 141.196 362.868 141.686 362.485C142.176 362.102 142.421 361.58 142.421 360.919C142.421 360.301 142.198 359.822 141.75 359.481C141.324 359.119 140.653 358.885 139.737 358.778L137.564 358.459C135.562 358.182 134.092 357.649 133.154 356.861C132.217 356.073 131.748 354.891 131.748 353.314C131.748 351.674 132.302 350.406 133.41 349.512C134.518 348.595 136.148 348.137 138.299 348.137H139.513C141.473 348.137 143.039 348.574 144.211 349.448C145.382 350.321 146.011 351.493 146.096 352.963H142.102C142.038 352.494 141.772 352.11 141.303 351.812C140.856 351.514 140.259 351.365 139.513 351.365H138.299C137.383 351.365 136.712 351.535 136.286 351.876C135.881 352.196 135.679 352.675 135.679 353.314C135.679 353.911 135.86 354.358 136.222 354.656C136.584 354.933 137.17 355.135 137.98 355.263L140.248 355.583C142.336 355.881 143.87 356.446 144.85 357.276C145.851 358.086 146.352 359.29 146.352 360.887C146.352 362.592 145.766 363.923 144.594 364.882C143.444 365.819 141.74 366.288 139.481 366.288H138.075ZM158.035 366.32C156.543 366.32 155.233 366.043 154.104 365.489C152.996 364.914 152.134 364.115 151.516 363.092C150.919 362.048 150.621 360.823 150.621 359.417V349.256C150.621 347.829 150.919 346.604 151.516 345.581C152.134 344.559 152.996 343.77 154.104 343.216C155.233 342.641 156.543 342.354 158.035 342.354C159.547 342.354 160.846 342.641 161.933 343.216C163.041 343.77 163.903 344.559 164.521 345.581C165.139 346.604 165.448 347.829 165.448 349.256H161.422C161.422 348.148 161.123 347.307 160.527 346.731C159.952 346.156 159.121 345.869 158.035 345.869C156.948 345.869 156.107 346.156 155.51 346.731C154.914 347.307 154.615 348.137 154.615 349.224V359.417C154.615 360.504 154.914 361.345 155.51 361.942C156.107 362.538 156.948 362.837 158.035 362.837C159.121 362.837 159.952 362.538 160.527 361.942C161.123 361.345 161.422 360.504 161.422 359.417V357.053H157.459V353.602H165.448V359.417C165.448 360.823 165.139 362.048 164.521 363.092C163.903 364.115 163.041 364.914 161.933 365.489C160.846 366.043 159.547 366.32 158.035 366.32ZM170.484 366V348.425H174.255V351.78H175.245L174.063 353.825C174.063 351.929 174.489 350.502 175.341 349.543C176.193 348.585 177.45 348.106 179.112 348.106C181.008 348.106 182.499 348.691 183.586 349.863C184.672 351.035 185.215 352.654 185.215 354.72V355.998H181.029V355.008C181.029 353.879 180.731 353.005 180.134 352.387C179.559 351.77 178.76 351.461 177.738 351.461C176.694 351.461 175.885 351.77 175.309 352.387C174.755 353.005 174.479 353.879 174.479 355.008V366H170.484ZM196.227 366.288C194.736 366.288 193.436 366.011 192.329 365.457C191.242 364.882 190.39 364.083 189.772 363.06C189.176 362.016 188.878 360.791 188.878 359.385V355.04C188.878 353.634 189.176 352.419 189.772 351.397C190.39 350.353 191.242 349.554 192.329 349C193.436 348.425 194.736 348.137 196.227 348.137C197.74 348.137 199.039 348.425 200.125 349C201.212 349.554 202.053 350.353 202.65 351.397C203.268 352.419 203.577 353.623 203.577 355.008V359.385C203.577 360.791 203.268 362.016 202.65 363.06C202.053 364.083 201.212 364.882 200.125 365.457C199.039 366.011 197.74 366.288 196.227 366.288ZM196.227 362.805C197.292 362.805 198.112 362.517 198.688 361.942C199.284 361.345 199.582 360.493 199.582 359.385V355.04C199.582 353.911 199.284 353.058 198.688 352.483C198.112 351.908 197.292 351.621 196.227 351.621C195.183 351.621 194.363 351.908 193.767 352.483C193.17 353.058 192.872 353.911 192.872 355.04V359.385C192.872 360.493 193.17 361.345 193.767 361.942C194.363 362.517 195.183 362.805 196.227 362.805ZM215.387 366.32C213.15 366.32 211.393 365.702 210.115 364.466C208.837 363.209 208.197 361.505 208.197 359.353V348.425H212.192V359.322C212.192 360.451 212.469 361.324 213.023 361.942C213.576 362.538 214.365 362.837 215.387 362.837C216.388 362.837 217.166 362.538 217.72 361.942C218.295 361.324 218.583 360.451 218.583 359.322V348.425H222.577V359.353C222.577 361.505 221.927 363.209 220.628 364.466C219.328 365.702 217.581 366.32 215.387 366.32ZM227.422 366V348.425H231.32V351.78H232.406L231.32 352.707C231.32 351.258 231.735 350.129 232.566 349.32C233.418 348.51 234.579 348.106 236.049 348.106C237.775 348.106 239.149 348.681 240.171 349.831C241.215 350.981 241.737 352.526 241.737 354.464V366H237.743V354.88C237.743 353.815 237.466 352.995 236.912 352.419C236.358 351.844 235.581 351.557 234.579 351.557C233.599 351.557 232.822 351.855 232.247 352.451C231.693 353.048 231.416 353.9 231.416 355.008V366H227.422ZM252.206 366.32C250.459 366.32 249.042 365.712 247.956 364.498C246.891 363.284 246.358 361.654 246.358 359.609V354.848C246.358 352.782 246.891 351.141 247.956 349.927C249.021 348.713 250.438 348.106 252.206 348.106C253.654 348.106 254.805 348.521 255.657 349.352C256.509 350.161 256.935 351.28 256.935 352.707L256.04 351.78H256.967L256.839 347.594V342.673H260.833V366H256.935V362.645H256.04L256.935 361.718C256.935 363.145 256.509 364.274 255.657 365.105C254.805 365.915 253.654 366.32 252.206 366.32ZM253.612 362.868C254.634 362.868 255.422 362.57 255.976 361.974C256.552 361.356 256.839 360.504 256.839 359.417V355.008C256.839 353.921 256.552 353.08 255.976 352.483C255.422 351.865 254.634 351.557 253.612 351.557C252.589 351.557 251.79 351.855 251.215 352.451C250.64 353.048 250.352 353.9 250.352 355.008V359.417C250.352 360.525 250.64 361.377 251.215 361.974C251.79 362.57 252.589 362.868 253.612 362.868ZM272.9 366.32C271.409 366.32 270.109 366.032 269.001 365.457C267.894 364.882 267.031 364.083 266.413 363.06C265.816 362.016 265.518 360.802 265.518 359.417V355.008C265.518 353.623 265.816 352.419 266.413 351.397C267.031 350.353 267.894 349.543 269.001 348.968C270.109 348.393 271.409 348.106 272.9 348.106C274.37 348.106 275.648 348.393 276.734 348.968C277.842 349.543 278.694 350.353 279.291 351.397C279.908 352.419 280.217 353.623 280.217 355.008V358.171H269.385V359.417C269.385 360.653 269.683 361.59 270.279 362.229C270.876 362.847 271.76 363.156 272.932 363.156C273.826 363.156 274.551 363.007 275.105 362.709C275.658 362.389 276.01 361.931 276.159 361.335H280.089C279.791 362.847 278.982 364.061 277.661 364.977C276.361 365.872 274.774 366.32 272.9 366.32ZM276.351 355.934V354.976C276.351 353.761 276.063 352.835 275.488 352.196C274.913 351.535 274.05 351.205 272.9 351.205C271.749 351.205 270.876 351.535 270.279 352.196C269.683 352.856 269.385 353.793 269.385 355.008V355.679L276.638 355.615L276.351 355.934ZM290.526 366.32C288.779 366.32 287.363 365.712 286.276 364.498C285.211 363.284 284.678 361.654 284.678 359.609V354.848C284.678 352.782 285.211 351.141 286.276 349.927C287.341 348.713 288.758 348.106 290.526 348.106C291.975 348.106 293.125 348.521 293.977 349.352C294.829 350.161 295.255 351.28 295.255 352.707L294.361 351.78H295.287L295.159 347.594V342.673H299.154V366H295.255V362.645H294.361L295.255 361.718C295.255 363.145 294.829 364.274 293.977 365.105C293.125 365.915 291.975 366.32 290.526 366.32ZM291.932 362.868C292.955 362.868 293.743 362.57 294.297 361.974C294.872 361.356 295.159 360.504 295.159 359.417V355.008C295.159 353.921 294.872 353.08 294.297 352.483C293.743 351.865 292.955 351.557 291.932 351.557C290.91 351.557 290.111 351.855 289.536 352.451C288.96 353.048 288.673 353.9 288.673 355.008V359.417C288.673 360.525 288.96 361.377 289.536 361.974C290.111 362.57 290.91 362.868 291.932 362.868Z" fill="#939393"/>
<path d="M121.504 428C119.821 428 118.5 427.531 117.541 426.594C116.604 425.657 116.135 424.368 116.135 422.728V414.036H111.374V410.425H116.135V405.472H120.162V410.425H126.904V414.036H120.162V422.728C120.162 423.835 120.705 424.389 121.791 424.389H126.584V428H121.504ZM138.747 428.288C137.255 428.288 135.956 428.011 134.848 427.457C133.762 426.882 132.909 426.083 132.292 425.06C131.695 424.016 131.397 422.791 131.397 421.385V417.04C131.397 415.634 131.695 414.419 132.292 413.397C132.909 412.353 133.762 411.554 134.848 411C135.956 410.425 137.255 410.137 138.747 410.137C140.259 410.137 141.559 410.425 142.645 411C143.731 411.554 144.573 412.353 145.169 413.397C145.787 414.419 146.096 415.623 146.096 417.008V421.385C146.096 422.791 145.787 424.016 145.169 425.06C144.573 426.083 143.731 426.882 142.645 427.457C141.559 428.011 140.259 428.288 138.747 428.288ZM138.747 424.805C139.812 424.805 140.632 424.517 141.207 423.942C141.803 423.345 142.102 422.493 142.102 421.385V417.04C142.102 415.911 141.803 415.058 141.207 414.483C140.632 413.908 139.812 413.621 138.747 413.621C137.703 413.621 136.883 413.908 136.286 414.483C135.69 415.058 135.391 415.911 135.391 417.04V421.385C135.391 422.493 135.69 423.345 136.286 423.942C136.883 424.517 137.703 424.805 138.747 424.805ZM159.824 428C158.141 428 156.82 427.531 155.862 426.594C154.924 425.657 154.456 424.368 154.456 422.728V414.036H149.694V410.425H154.456V405.472H158.482V410.425H165.224V414.036H158.482V422.728C158.482 423.835 159.025 424.389 160.112 424.389H164.905V428H159.824ZM175.118 428.32C173.307 428.32 171.88 427.84 170.836 426.882C169.792 425.923 169.27 424.634 169.27 423.015C169.27 421.29 169.845 419.958 170.996 419.021C172.146 418.083 173.776 417.615 175.885 417.615H180.262V416.113C180.262 415.261 179.985 414.6 179.431 414.132C178.878 413.642 178.121 413.397 177.163 413.397C176.289 413.397 175.565 413.589 174.99 413.972C174.415 414.355 174.074 414.877 173.967 415.538H170.069C170.261 413.876 171.006 412.555 172.306 411.575C173.605 410.595 175.267 410.106 177.291 410.106C179.442 410.106 181.136 410.649 182.371 411.735C183.628 412.8 184.257 414.249 184.257 416.081V428H180.39V424.932H179.751L180.39 424.07C180.39 425.369 179.911 426.402 178.952 427.169C177.994 427.936 176.715 428.32 175.118 428.32ZM176.428 425.316C177.557 425.316 178.473 425.028 179.176 424.453C179.9 423.878 180.262 423.132 180.262 422.216V420.075H175.948C175.139 420.075 174.489 420.31 173.999 420.778C173.509 421.247 173.264 421.865 173.264 422.632C173.264 423.462 173.541 424.123 174.095 424.613C174.67 425.081 175.448 425.316 176.428 425.316ZM198.911 428C197.761 428 196.749 427.766 195.876 427.297C195.023 426.828 194.352 426.168 193.862 425.316C193.372 424.442 193.127 423.441 193.127 422.312V408.284H187.503V404.673H197.122V422.312C197.122 422.951 197.303 423.462 197.665 423.846C198.048 424.208 198.56 424.389 199.199 424.389H204.503V428H198.911ZM206.919 428L212.799 404.673H217.944L223.855 428H219.765L218.487 422.344H212.288L211.009 428H206.919ZM213.023 419.085H217.752L216.346 412.822C216.112 411.778 215.909 410.84 215.739 410.01C215.568 409.158 215.451 408.54 215.387 408.156C215.323 408.54 215.206 409.158 215.036 410.01C214.887 410.84 214.684 411.767 214.429 412.79L213.023 419.085ZM226.623 428V410.425H229.882V412.79H230.553L230.01 413.365C230.01 412.385 230.287 411.597 230.841 411C231.395 410.404 232.108 410.106 232.982 410.106C233.919 410.106 234.643 410.489 235.155 411.256C235.687 412.023 235.953 413.056 235.953 414.355L235.25 412.79H236.337L235.921 413.365C235.921 412.385 236.198 411.597 236.752 411C237.306 410.404 238.041 410.106 238.957 410.106C240.044 410.106 240.906 410.51 241.545 411.32C242.185 412.129 242.504 413.226 242.504 414.611V428H238.989V414.771C238.989 414.196 238.861 413.748 238.606 413.429C238.35 413.088 237.977 412.918 237.487 412.918C237.019 412.918 236.646 413.077 236.369 413.397C236.113 413.716 235.985 414.174 235.985 414.771V428H233.109V414.771C233.109 414.174 232.982 413.716 232.726 413.397C232.47 413.077 232.098 412.918 231.608 412.918C231.118 412.918 230.745 413.077 230.489 413.397C230.255 413.716 230.138 414.174 230.138 414.771V428H226.623ZM245.783 428V410.425H249.042V412.79H249.713L249.17 413.365C249.17 412.385 249.447 411.597 250.001 411C250.555 410.404 251.268 410.106 252.142 410.106C253.079 410.106 253.803 410.489 254.315 411.256C254.847 412.023 255.114 413.056 255.114 414.355L254.411 412.79H255.497L255.082 413.365C255.082 412.385 255.359 411.597 255.912 411C256.466 410.404 257.201 410.106 258.117 410.106C259.204 410.106 260.067 410.51 260.706 411.32C261.345 412.129 261.664 413.226 261.664 414.611V428H258.149V414.771C258.149 414.196 258.021 413.748 257.766 413.429C257.51 413.088 257.137 412.918 256.647 412.918C256.179 412.918 255.806 413.077 255.529 413.397C255.273 413.716 255.146 414.174 255.146 414.771V428H252.27V414.771C252.27 414.174 252.142 413.716 251.886 413.397C251.631 413.077 251.258 412.918 250.768 412.918C250.278 412.918 249.905 413.077 249.649 413.397C249.415 413.716 249.298 414.174 249.298 414.771V428H245.783ZM272.868 428.288C271.377 428.288 270.077 428.011 268.969 427.457C267.883 426.882 267.031 426.083 266.413 425.06C265.816 424.016 265.518 422.791 265.518 421.385V417.04C265.518 415.634 265.816 414.419 266.413 413.397C267.031 412.353 267.883 411.554 268.969 411C270.077 410.425 271.377 410.137 272.868 410.137C274.38 410.137 275.68 410.425 276.766 411C277.853 411.554 278.694 412.353 279.291 413.397C279.908 414.419 280.217 415.623 280.217 417.008V421.385C280.217 422.791 279.908 424.016 279.291 425.06C278.694 426.083 277.853 426.882 276.766 427.457C275.68 428.011 274.38 428.288 272.868 428.288ZM272.868 424.805C273.933 424.805 274.753 424.517 275.328 423.942C275.925 423.345 276.223 422.493 276.223 421.385V417.04C276.223 415.911 275.925 415.058 275.328 414.483C274.753 413.908 273.933 413.621 272.868 413.621C271.824 413.621 271.004 413.908 270.407 414.483C269.811 415.058 269.513 415.911 269.513 417.04V421.385C269.513 422.493 269.811 423.345 270.407 423.942C271.004 424.517 271.824 424.805 272.868 424.805Z" fill="#939393"/>
<path d="M66.12 412.406L60.07 408.346C59.7515 408.129 59.3773 408.009 58.9924 408.001C58.6074 407.992 58.2281 408.094 57.9 408.296L47.95 414.416C47.6599 414.594 47.4204 414.845 47.2541 415.142C47.0878 415.44 47.0004 415.775 47 416.116V421.936C46.9995 422.263 47.0795 422.586 47.2329 422.875C47.3864 423.165 47.6086 423.412 47.88 423.596L53.93 427.666C54.2485 427.882 54.6227 428.002 55.0076 428.011C55.3926 428.019 55.7719 427.917 56.1 427.716L66.05 421.596C66.3401 421.417 66.5796 421.166 66.7459 420.869C66.9122 420.571 66.9996 420.236 67 419.896V414.066C67.0005 413.738 66.9205 413.415 66.7671 413.126C66.6136 412.836 66.3914 412.589 66.12 412.406Z" stroke="#7DC877" stroke-width="12" stroke-linecap="round" stroke-linejoin="round"/>
<path d="M54.9998 428.006V420.006M54.9998 420.006L47.2498 415.156M54.9998 420.006L66.7698 413.136" stroke="#7DC877" stroke-width="12" stroke-linecap="round" stroke-linejoin="round"/>
<path d="M66.12 412.406L60.07 408.346C59.7515 408.129 59.3773 408.009 58.9924 408.001C58.6074 407.992 58.2281 408.094 57.9 408.296L47.95 414.416C47.6599 414.594 47.4204 414.845 47.2541 415.142C47.0878 415.44 47.0004 415.775 47 416.116V421.936C46.9995 422.263 47.0795 422.586 47.2329 422.875C47.3864 423.165 47.6086 423.412 47.88 423.596L53.93 427.666C54.2485 427.882 54.6227 428.002 55.0076 428.011C55.3926 428.019 55.7719 427.917 56.1 427.716L66.05 421.596C66.3401 421.417 66.5796 421.166 66.7459 420.869C66.9122 420.571 66.9996 420.236 67 419.896V414.066C67.0005 413.738 66.9205 413.415 66.7671 413.126C66.6136 412.836 66.3914 412.589 66.12 412.406Z" stroke="#24292E" stroke-width="4" stroke-linecap="round" stroke-linejoin="round"/>
<path d="M54.9998 428.006V420.006M54.9998 420.006L47.2498 415.156M54.9998 420.006L66.7698 413.136" stroke="#24292E" stroke-width="4" stroke-linecap="round" stroke-linejoin="round"/>
<rect width="513" height="114" fill="#A3B3BF"/>
<path d="M119.714 69.3195C118.223 69.3195 116.913 69.0426 115.784 68.4887C114.676 67.9135 113.813 67.1147 113.195 66.0921C112.599 65.0483 112.301 63.8234 112.301 62.4174V52.2559C112.301 50.8286 112.599 49.6037 113.195 48.5811C113.813 47.5586 114.676 46.7704 115.784 46.2165C116.913 45.6413 118.223 45.3537 119.714 45.3537C121.227 45.3537 122.526 45.6413 123.613 46.2165C124.72 46.7704 125.583 47.5586 126.201 48.5811C126.819 49.6037 127.128 50.8286 127.128 52.2559H123.101C123.101 51.1481 122.803 50.3067 122.207 49.7315C121.631 49.1563 120.801 48.8687 119.714 48.8687C118.628 48.8687 117.786 49.1563 117.19 49.7315C116.593 50.3067 116.295 51.1375 116.295 52.2239V62.4174C116.295 63.5038 116.593 64.3453 117.19 64.9418C117.786 65.517 118.628 65.8046 119.714 65.8046C120.801 65.8046 121.631 65.517 122.207 64.9418C122.803 64.3453 123.101 63.5038 123.101 62.4174H127.128C127.128 63.8021 126.819 65.0163 126.201 66.0602C125.583 67.104 124.72 67.9135 123.613 68.4887C122.526 69.0426 121.227 69.3195 119.714 69.3195ZM138.747 69.2876C137.255 69.2876 135.956 69.0107 134.848 68.4568C133.762 67.8816 132.909 67.0827 132.292 66.0602C131.695 65.0163 131.397 63.7914 131.397 62.3854V58.0396C131.397 56.6336 131.695 55.4194 132.292 54.3968C132.909 53.353 133.762 52.5541 134.848 52.0002C135.956 51.4251 137.255 51.1375 138.747 51.1375C140.259 51.1375 141.559 51.4251 142.645 52.0002C143.731 52.5541 144.573 53.353 145.169 54.3968C145.787 55.4194 146.096 56.623 146.096 58.0077V62.3854C146.096 63.7914 145.787 65.0163 145.169 66.0602C144.573 67.0827 143.731 67.8816 142.645 68.4568C141.559 69.0107 140.259 69.2876 138.747 69.2876ZM138.747 65.8046C139.812 65.8046 140.632 65.517 141.207 64.9418C141.803 64.3453 142.102 63.4932 142.102 62.3854V58.0396C142.102 56.9106 141.803 56.0585 141.207 55.4833C140.632 54.9081 139.812 54.6205 138.747 54.6205C137.703 54.6205 136.883 54.9081 136.286 55.4833C135.69 56.0585 135.391 56.9106 135.391 58.0396V62.3854C135.391 63.4932 135.69 64.3453 136.286 64.9418C136.883 65.517 137.703 65.8046 138.747 65.8046ZM150.781 69V51.4251H154.679V54.7803H155.766L154.679 55.707C154.679 54.2584 155.095 53.1293 155.926 52.3198C156.778 51.5103 157.939 51.1055 159.409 51.1055C161.134 51.1055 162.508 51.6807 163.531 52.8311C164.575 53.9814 165.096 55.5259 165.096 57.4644V69H161.102V57.8799C161.102 56.8147 160.825 55.9945 160.271 55.4194C159.717 54.8442 158.94 54.5566 157.939 54.5566C156.959 54.5566 156.181 54.8548 155.606 55.4513C155.052 56.0478 154.775 56.8999 154.775 58.0077V69H150.781ZM178.984 69C177.301 69 175.98 68.5313 175.022 67.594C174.084 66.6567 173.616 65.3678 173.616 63.7275V55.0359H168.855V51.4251H173.616V46.4721H177.642V51.4251H184.384V55.0359H177.642V63.7275C177.642 64.8353 178.185 65.3891 179.272 65.3891H184.065V69H178.984ZM189.644 69V51.4251H193.415V54.7803H194.406L193.223 56.8254C193.223 54.9294 193.649 53.5021 194.502 52.5435C195.354 51.5848 196.611 51.1055 198.272 51.1055C200.168 51.1055 201.659 51.6913 202.746 52.863C203.832 54.0347 204.375 55.6537 204.375 57.7201V58.9983H200.189V58.0077C200.189 56.8786 199.891 56.0052 199.295 55.3874C198.719 54.7696 197.921 54.4607 196.898 54.4607C195.854 54.4607 195.045 54.7696 194.47 55.3874C193.916 56.0052 193.639 56.8786 193.639 58.0077V69H189.644ZM215.387 69.2876C213.896 69.2876 212.597 69.0107 211.489 68.4568C210.402 67.8816 209.55 67.0827 208.932 66.0602C208.336 65.0163 208.038 63.7914 208.038 62.3854V58.0396C208.038 56.6336 208.336 55.4194 208.932 54.3968C209.55 53.353 210.402 52.5541 211.489 52.0002C212.597 51.4251 213.896 51.1375 215.387 51.1375C216.9 51.1375 218.199 51.4251 219.286 52.0002C220.372 52.5541 221.214 53.353 221.81 54.3968C222.428 55.4194 222.737 56.623 222.737 58.0077V62.3854C222.737 63.7914 222.428 65.0163 221.81 66.0602C221.214 67.0827 220.372 67.8816 219.286 68.4568C218.199 69.0107 216.9 69.2876 215.387 69.2876ZM215.387 65.8046C216.452 65.8046 217.273 65.517 217.848 64.9418C218.444 64.3453 218.742 63.4932 218.742 62.3854V58.0396C218.742 56.9106 218.444 56.0585 217.848 55.4833C217.273 54.9081 216.452 54.6205 215.387 54.6205C214.343 54.6205 213.523 54.9081 212.927 55.4833C212.33 56.0585 212.032 56.9106 212.032 58.0396V62.3854C212.032 63.4932 212.33 64.3453 212.927 64.9418C213.523 65.517 214.343 65.8046 215.387 65.8046ZM237.232 69C236.081 69 235.069 68.7657 234.196 68.297C233.344 67.8283 232.673 67.1679 232.183 66.3158C231.693 65.4424 231.448 64.4412 231.448 63.3121V49.2841H225.824V45.6733H235.442V63.3121C235.442 63.9512 235.623 64.4625 235.985 64.8459C236.369 65.2081 236.88 65.3891 237.519 65.3891H242.824V69H237.232ZM256.392 69C255.241 69 254.229 68.7657 253.356 68.297C252.504 67.8283 251.833 67.1679 251.343 66.3158C250.853 65.4424 250.608 64.4412 250.608 63.3121V49.2841H244.984V45.6733H254.602V63.3121C254.602 63.9512 254.783 64.4625 255.146 64.8459C255.529 65.2081 256.04 65.3891 256.679 65.3891H261.984V69H256.392ZM272.9 69.3195C271.409 69.3195 270.109 69.032 269.001 68.4568C267.894 67.8816 267.031 67.0827 266.413 66.0602C265.816 65.0163 265.518 63.8021 265.518 62.4174V58.0077C265.518 56.623 265.816 55.4194 266.413 54.3968C267.031 53.353 267.894 52.5435 269.001 51.9683C270.109 51.3931 271.409 51.1055 272.9 51.1055C274.37 51.1055 275.648 51.3931 276.734 51.9683C277.842 52.5435 278.694 53.353 279.291 54.3968C279.908 55.4194 280.217 56.623 280.217 58.0077V61.1712H269.385V62.4174C269.385 63.653 269.683 64.5903 270.279 65.2294C270.876 65.8472 271.76 66.1561 272.932 66.1561C273.826 66.1561 274.551 66.0069 275.105 65.7087C275.658 65.3891 276.01 64.9311 276.159 64.3347H280.089C279.791 65.8472 278.982 67.0614 277.661 67.9775C276.361 68.8722 274.774 69.3195 272.9 69.3195ZM276.351 58.9344V57.9757C276.351 56.7615 276.063 55.8348 275.488 55.1957C274.913 54.5353 274.05 54.2051 272.9 54.2051C271.749 54.2051 270.876 54.5353 270.279 55.1957C269.683 55.8561 269.385 56.7934 269.385 58.0077V58.6787L276.638 58.6148L276.351 58.9344ZM285.445 69V51.4251H289.216V54.7803H290.207L289.024 56.8254C289.024 54.9294 289.45 53.5021 290.302 52.5435C291.155 51.5848 292.411 51.1055 294.073 51.1055C295.969 51.1055 297.46 51.6913 298.547 52.863C299.633 54.0347 300.176 55.6537 300.176 57.7201V58.9983H295.99V58.0077C295.99 56.8786 295.692 56.0052 295.096 55.3874C294.52 54.7696 293.722 54.4607 292.699 54.4607C291.655 54.4607 290.846 54.7696 290.27 55.3874C289.717 56.0052 289.44 56.8786 289.44 58.0077V69H285.445Z" fill="#24292E"/>
<path d="M55.1807 82.1108V56.5553M55.1807 56.5553L77.6661 43.6753M55.1807 56.5553L32.6954 43.6753M78.3615 66.7979V46.3075C78.3599 45.4158 78.1209 44.5403 77.6686 43.7698C77.2163 42.9992 76.5668 42.361 75.7859 41.9196L57.7564 31.6769C56.9716 31.2333 56.084 31 55.1807 31C54.2775 31 53.3899 31.2333 52.6051 31.6769L34.5756 41.9196C32.9813 42.8268 32 44.5007 32 46.3101V66.8005C32 68.6124 32.9813 70.2837 34.5756 71.1884L52.6051 81.4311C53.3899 81.8747 54.2775 82.108 55.1807 82.108C56.084 82.108 56.9716 81.8747 57.7564 81.4311L75.7859 71.1884C77.3802 70.2812 78.3615 68.6073 78.3615 66.7979Z" stroke="#24292E" stroke-width="5" stroke-linecap="round" stroke-linejoin="round"/>
</svg>
