<svg width="570" height="125" viewBox="0 0 570 125" fill="none" xmlns="http://www.w3.org/2000/svg">
<path d="M10.5 62.5C10.5 61.6561 10.8426 59.8802 13.4671 57.0675C16.1407 54.2022 20.5964 50.933 27.2297 47.4938C40.4709 40.6285 60.3189 34.1333 85.7238 28.5621C136.362 17.4571 206.823 10.5 285 10.5C363.177 10.5 433.638 17.4571 484.276 28.5621C509.681 34.1333 529.529 40.6285 542.77 47.4938C549.404 50.933 553.859 54.2022 556.533 57.0675C559.157 59.8802 559.5 61.6561 559.5 62.5C559.5 63.3439 559.157 65.1198 556.533 67.9325C553.859 70.7978 549.404 74.067 542.77 77.5062C529.529 84.3715 509.681 90.8667 484.276 96.4379C433.638 107.543 363.177 114.5 285 114.5C206.823 114.5 136.362 107.543 85.7238 96.4379C60.3189 90.8667 40.4709 84.3715 27.2297 77.5062C20.5964 74.067 16.1407 70.7978 13.4671 67.9325C10.8426 65.1198 10.5 63.3439 10.5 62.5Z" fill="url(#paint0_linear_133_12)" stroke="black" stroke-width="21" stroke-miterlimit="1"/>
<defs>
<linearGradient id="paint0_linear_133_12" x1="285" y1="125" x2="285" y2="0" gradientUnits="userSpaceOnUse">
<stop stop-color="#1400FF"/>
<stop offset="0.91493" stop-color="white" stop-opacity="0"/>
</linearGradient>
</defs>
</svg>
