<svg width="1000" height="1000" viewBox="0 0 1000 1000" fill="none" xmlns="http://www.w3.org/2000/svg">
<rect width="1000" height="1000" fill="white"/>
<path fill-rule="evenodd" clip-rule="evenodd" d="M351.085 223.096C282.046 225.851 221.768 275.345 205.207 342.876C201.968 356.082 200.986 365.074 201 381.399C201.045 432.725 215.769 475.261 248.589 518.876C268.605 545.476 293.763 570.396 355.099 624.376C390.881 655.868 404.323 668.359 426.259 690.505C454.522 719.039 472.796 740.083 491.492 765.626C495.819 771.538 499.692 776.376 500.097 776.376C500.503 776.376 503.229 772.889 506.154 768.626C513.025 758.615 523.794 744.345 533.511 732.376C542.161 721.722 573.872 686.763 579.774 681.376C581.883 679.451 589.907 671.801 597.605 664.376C610.811 651.638 626.181 637.651 670.621 597.924C740.371 535.572 771.784 495.506 788.443 447.645C800.217 413.82 802.592 372.976 794.623 341.344C780.773 286.362 736.099 241.688 681.117 227.838C653.547 220.893 621.145 221.845 595.103 230.366C557.436 242.691 526.021 268.304 506.224 302.83C503.434 307.695 500.912 312.171 500.618 312.776C500.23 313.576 499.94 313.576 499.552 312.776C499.258 312.171 496.723 307.671 493.917 302.776C474.208 268.389 442.649 242.669 405.067 230.364C389.733 225.344 368.018 222.42 351.085 223.096Z" fill="#F83D98"/>
</svg>
