<svg width="103" height="131" viewBox="0 0 103 131" fill="none" xmlns="http://www.w3.org/2000/svg">
<path fill-rule="evenodd" clip-rule="evenodd" d="M46.2763 0.0559998H102.372V83.0891L102.372 83.1259C102.327 92.1626 100.002 100.71 95.044 108.251C90.265 115.537 83.7147 121.067 75.8458 124.889L75.83 124.897L75.8141 124.905C67.857 128.746 59.1039 130.454 49.9134 130.454C41.8056 130.454 34.0153 129.048 26.7387 126.012L26.7033 125.997L26.6679 125.982C18.7255 122.62 12.2267 117.23 7.47512 110.029L7.4625 110.01L7.44994 109.991C2.27343 102.093 0.331958 92.7799 0.372618 83.1844L0.434743 68.5228H46.2763V0.0559998ZM43.3974 89.5683C42.6518 87.8502 42.2304 85.743 42.1331 83.2468H15.0965C15.0959 83.4029 15.0959 83.5585 15.0965 83.7134C15.12 89.2148 15.9775 93.9673 17.669 97.9708C18.2642 99.3798 18.9628 100.696 19.7647 101.92C22.9093 106.685 27.1236 110.186 32.4077 112.423C37.6919 114.627 43.5271 115.73 49.9134 115.73C57.2723 115.73 63.7721 114.368 69.4128 111.645C75.086 108.889 79.5273 105.064 82.7366 100.169C85.9784 95.2415 87.6155 89.5359 87.648 83.0523V14.78H61.0004V83.0523C60.968 85.6133 60.5951 87.7691 59.882 89.5197C59.1688 91.2378 58.1152 92.5346 56.7212 93.4098C55.3596 94.2851 53.6739 94.7228 51.664 94.7228C49.6865 94.7228 48.0008 94.3013 46.6068 93.4585C45.2452 92.5832 44.1754 91.2865 43.3974 89.5683Z" fill="black"/>
<path d="M61.2318 14.8607H87.9445V83.2998C87.912 89.7992 86.2709 95.5187 83.0212 100.458C79.804 105.365 75.3519 109.2 69.6649 111.962C64.0104 114.692 57.4947 116.057 50.1178 116.057C43.7159 116.057 37.8664 114.952 32.5693 112.742C27.2723 110.5 23.0477 106.99 19.8955 102.213C16.7432 97.4035 15.1834 91.1641 15.2159 83.4947H42.3185C42.416 85.997 42.8384 88.1093 43.5859 89.8317C44.3658 91.554 45.4382 92.8539 46.8031 93.7313C48.2005 94.5763 49.8903 94.9987 51.8727 94.9987C53.8875 94.9987 55.5773 94.56 56.9422 93.6826C58.3396 92.8052 59.3958 91.5053 60.1107 89.7829C60.8256 88.0281 61.1993 85.867 61.2318 83.2998V14.8607Z" fill="white"/>
</svg>
